<?xml version="1.0" encoding="UTF-8" standalone="no"?>
<svg
   xmlns:dc="http://purl.org/dc/elements/1.1/"
   xmlns:cc="http://creativecommons.org/ns#"
   xmlns:rdf="http://www.w3.org/1999/02/22-rdf-syntax-ns#"
   xmlns:svg="http://www.w3.org/2000/svg"
   xmlns="http://www.w3.org/2000/svg"
   xmlns:sodipodi="http://sodipodi.sourceforge.net/DTD/sodipodi-0.dtd"
   xmlns:inkscape="http://www.inkscape.org/namespaces/inkscape"
   viewBox="0 0 576 576"
   id="svg2"
   version="1.1"
   inkscape:version="0.47 r22583"
   width="100%"
   height="100%"
   sodipodi:docname="what-is-a-comet.svg">
  <metadata
     id="metadata1194">
    <rdf:RDF>
      <cc:Work
         rdf:about="">
        <dc:format>image/svg+xml</dc:format>
        <dc:type
           rdf:resource="http://purl.org/dc/dcmitype/StillImage" />
      </cc:Work>
    </rdf:RDF>
  </metadata>
  <defs
     id="defs1192">
    <inkscape:perspective
       sodipodi:type="inkscape:persp3d"
       inkscape:vp_x="0 : 288 : 1"
       inkscape:vp_y="0 : 1000 : 0"
       inkscape:vp_z="1024 : 288 : 1"
       inkscape:persp3d-origin="512 : 192 : 1"
       id="perspective1196" />
    <inkscape:perspective
       id="perspective5625"
       inkscape:persp3d-origin="0.5 : 0.33333333 : 1"
       inkscape:vp_z="1 : 0.5 : 1"
       inkscape:vp_y="0 : 1000 : 0"
       inkscape:vp_x="0 : 0.5 : 1"
       sodipodi:type="inkscape:persp3d" />
    <inkscape:perspective
       id="perspective5647"
       inkscape:persp3d-origin="0.5 : 0.33333333 : 1"
       inkscape:vp_z="1 : 0.5 : 1"
       inkscape:vp_y="0 : 1000 : 0"
       inkscape:vp_x="0 : 0.5 : 1"
       sodipodi:type="inkscape:persp3d" />
    <inkscape:perspective
       id="perspective5669"
       inkscape:persp3d-origin="0.5 : 0.33333333 : 1"
       inkscape:vp_z="1 : 0.5 : 1"
       inkscape:vp_y="0 : 1000 : 0"
       inkscape:vp_x="0 : 0.5 : 1"
       sodipodi:type="inkscape:persp3d" />
  </defs>
  <sodipodi:namedview
     pagecolor="#ffffff"
     bordercolor="#666666"
     borderopacity="1"
     objecttolerance="10"
     gridtolerance="10"
     guidetolerance="10"
     inkscape:pageopacity="0"
     inkscape:pageshadow="2"
     inkscape:window-width="1680"
     inkscape:window-height="998"
     id="namedview1190"
     showgrid="false"
     inkscape:zoom="1.2673611"
     inkscape:cx="288"
     inkscape:cy="288"
     inkscape:window-x="0"
     inkscape:window-y="24"
     inkscape:window-maximized="1"
     inkscape:current-layer="svg2" />
  <path
     style="fill:#000000;fill-opacity:1;fill-rule:nonzero;stroke:#ffffff;stroke-opacity:0"
     d="m 288.38356,10.265497 c -153.17503,0 -277.343748,124.011593 -277.343748,276.968753 0,152.95716 124.168718,276.9375 277.343748,276.9375 153.17503,0 277.34375,-123.98034 277.34375,-276.9375 0,-152.95716 -124.16872,-276.968753 -277.34375,-276.968753 z"
     id="path4031" />
  <path
     d="m 329.38356,10.915068 0,4.000001 z"
     id="path38"
     style="fill:#504b4c;stroke:none" />
  <path
     style="fill:#504b4c;stroke:none"
     d="m 127.38356,61.515497 c -2.92094,1.858337 -4.99826,4.691619 -7.30055,7.205983 -0.89796,0.680036 -2.05322,0.928216 -2.89298,1.710333 -1.92166,1.380544 -3.39179,3.283517 -5.30284,4.680232 -1.1499,0.976844 -2.31117,1.940114 -3.47238,2.903452 1.08708,0.192909 1.85839,-0.882117 2.90625,-0.9375 1.89748,-0.581177 4.20649,-1.008194 5.90625,0.3125 0.83958,0.584481 1.95957,0.331831 2.84375,0.8125 -0.44186,0.784342 0.32104,2.281255 1.28125,1.6875 1.05848,-0.341379 2.01377,0.600719 2.28125,1.5625 1.17781,1.757821 3.42036,2.274169 5.40625,2.40625 1.08969,0.154606 1.272,2.035093 0.0937,2.21875 -0.94768,0.217391 -2.24708,-0.575478 -2.90625,0.4375 -0.49313,0.780711 0.16509,1.639169 0.86305,2.018483 1.41116,0.731434 2.98239,1.150144 4.46957,1.717117 0.86001,0.172851 1.94494,0.910705 1.56301,1.911097 -0.30371,1.376167 -1.15211,2.542121 -1.55188,3.884553 -0.7959,0.58014 -0.56217,2.217527 0.61702,1.746727 2.19627,-0.494896 4.42675,-0.778623 6.62674,-1.264287 0.95052,-0.166855 2.20408,-0.81082 2.08476,0.706653 0.44543,0.877581 0.19662,2.644335 1.09959,2.93591 1.87813,0 3.75626,0 5.63439,0 0,1.33333 0,2.66666 0,4 2,0.66667 4,1.33333 6,2 0.33333,-1.33333 0.66667,-2.66667 1,-4 -1.34488,-2.03827 -1.60159,-4.64735 -3.21875,-6.531253 -1.33406,-0.87189 -2.99756,-0.667837 -4.5,-0.53125 1.08987,-1.894295 2.76732,-3.341977 3.96875,-5.15625 1.27014,-0.07303 1.66584,1.818707 2.96875,1.59375 1.02679,0.126218 1.99746,-0.338892 2.96875,-0.59375 0.4163,-1.168317 2.14786,0.599937 0.9375,0.96875 -1.02677,0.304349 -0.32327,2.213864 0.65625,1.65625 1.26533,-0.456469 2.54661,-0.862627 3.84375,-1.21875 -0.52852,1.027878 -1.64335,1.559757 -2.28125,2.5 -1.12748,-0.06974 -0.48385,2.063676 0.4375,1.375 1.73743,-0.111298 3.47911,-0.04412 5.21875,-0.0625 -0.83283,1.771288 -2.53089,3.277673 -2.4375,5.375003 0.17223,1.01674 0.88148,1.79781 1.4375,2.625 -1.33333,0 -2.66667,0 -4,0 2,1 4,2 6,3 0.33333,-2.33333 0.66667,-4.66667 1,-7 1.33333,0 2.66667,0 4,0 -1,-1.000003 -2,-2.000003 -3,-3.000003 0,-1.666667 0,-3.333333 0,-5 2,0.333333 4,0.666667 6,1 -0.19185,2.896748 -1.1982,5.956582 0.0625,8.750003 0.43656,0.90638 1.1199,1.67008 1.9375,2.25 -0.27622,-1.04588 -0.85485,-2.02259 -0.875,-3.125 1.625,-1.625003 3.25,-3.250003 4.875,-4.875003 0,-1.666667 0,-3.333333 0,-5 0.33333,5.666667 0.66667,11.333333 1,17.000003 2.58101,-0.59762 4.1661,-3.21147 4.40625,-5.71875 0.33114,-1.06581 0.40238,-2.18627 0.59375,-3.281253 1,3.333333 2,6.666673 3,10.000003 -1.33333,0 -2.66667,0 -4,0 -0.66667,1.66667 -1.33333,3.33333 -2,5 5,1.33333 10,2.66667 15,4 -1.66667,0 -3.33333,0 -5,0 0,1.33333 0,2.66667 0,4 3.33333,-0.66667 6.66667,-1.33333 10,-2 -0.33333,3.66667 -0.66667,7.33333 -1,11 1,-1 2,-2 3,-3 0.26361,1.94958 0.0704,4.25797 -1.59375,5.5625 -1.09483,0.041 -1.71589,1.83786 -0.625,2.34375 1.91017,1.29089 3.79416,2.62197 5.75,3.84375 1.1533,-0.36767 0.62986,-1.85573 1.3125,-2.59375 0.22001,-1.07656 -1.3252,-1.6985 -2.09375,-1.0625 -0.99969,0.40864 -1.73791,-1.28968 -0.875,-1.84375 1.85915,-3.63777 1.73695,-8.05897 0.0937,-11.75 -0.57454,-1.46779 -0.92826,-3.03016 -1.71875,-4.40625 0.0257,-1.12575 1.43722,-1.46194 2.34375,-1.21875 2.13157,0.16443 4.27039,0.11912 6.40625,0.125 -0.66667,1 -1.33333,2 -2,3 0,2 0,4 0,6 2,-1.33333 4,-2.66667 6,-4 0,2 0,4 0,6 0.91403,0.41121 2.37752,-0.36328 2.03125,-1.46875 -0.44249,-0.89978 0.40032,-2.35862 1.46875,-1.90625 1.14144,0.53045 2.58755,0.65512 3.375,1.75 0.43456,1.32868 -0.30861,3.06817 0.90625,4.09375 2.06015,1.77706 4.25666,3.38759 6.46875,4.96875 0.86534,1.16648 -0.0804,2.63232 -0.9375,3.5 -0.99777,0.90675 1.13093,1.84414 1.34252,0.59061 1.36916,-0.80863 2.9182,0.0971 4.34498,0.22189 1.45298,0.59424 1.60511,2.37853 1.9905,3.69433 0.27537,0.67016 0.44908,2.35268 0.8845,2.33692 0.44131,-1.03378 -0.11573,-2.14961 0.125,-3.21406 0,-2.85573 0,-5.71146 0,-8.56719 1.33333,0 2.66667,0 4,0 -2.66667,-1.33333 -5.33333,-2.66667 -8,-4 0,1.33333 0,2.66667 0,4 -0.70502,-1.98744 -2.06583,-3.95059 -1.625,-6.15625 0.42633,-1.06879 1.54366,-1.65341 2.625,-1.84375 0,-1.33333 0,-2.66667 0,-4 -2.33333,1.66667 -4.66667,3.33333 -7,5 -0.34991,-1.9013 -0.97598,-4.10665 0.21875,-5.84375 0.97327,-0.99673 2.46797,-1.09776 3.78125,-1.15625 -0.90496,-2.54191 -3.59083,-3.91654 -6.125,-4.28125 -2.59845,-0.69047 -5.30882,-0.89478 -7.875,-1.71875 -1,2.33333 -2,4.66667 -3,7 -0.33333,-4 -0.66667,-8 -1,-12 0.90568,-0.2555 2.22619,-0.005 2.4375,1.0625 -0.48581,1.02999 1.18914,2.20312 1.90625,1.21875 1.25389,-1.05288 2.77768,-2.20696 2.9375,-3.96875 -0.52538,-2.29381 -2.82824,-3.49445 -4.875,-4.1875 -1.44011,-0.47977 -2.90988,-0.86668 -4.40625,-1.125 0.66667,-2 1.33333,-4.000003 2,-6.000003 -4.33333,-1 -8.66667,-2 -13,-3 -2.01555,1.934415 -3.92901,4.004532 -5.46875,6.34375 -0.59658,-0.895241 0.44194,-1.818026 0.25,-2.75 0.40625,-1.53125 0.8125,-3.0625 1.21875,-4.59375 -1,2 -2,4 -3,6 -1,-1.333333 -2,-2.666667 -3,-4 0.78494,0.548728 2.21858,-0.378126 1.65625,-1.3125 -0.71335,-1.501328 -1.14557,-3.111255 -1.65625,-4.6875 -4,0 -8,0 -12,0 1.33333,-2.333333 2.66667,-4.666667 4,-7 -1.33333,0.666667 -2.66667,1.333333 -4,2 0.33333,-1.333333 0.66667,-2.666667 1,-4 -3.33333,2 -6.66667,4 -10,6 0.33333,1.333333 0.66667,2.666667 1,4 -2.01282,-0.964777 -3.26592,-3.64545 -2.1875,-5.71875 -0.30604,-1.190847 -2.18705,-1.051873 -2.625,-0.03125 -0.60733,0.870552 -2.26978,-0.177914 -1.6875,-1.09375 0.41395,-1.740782 -0.39261,-3.612612 -1.78125,-4.6875 -1.42368,-1.974743 -1.44421,-4.513459 -1.625,-6.84375 1.04089,-0.206535 0.006,-2.05006 -0.65625,-1.21875 -0.72945,1.195487 -2.4247,2.011216 -2.26106,3.619189 0.60977,5.991317 1.21539,11.983075 1.82356,17.974561 -1.33333,-1.333333 2.8075,-15.895908 1.47417,-17.229241 -1.66667,-0.666667 0.7723,-3.614237 -0.89437,-4.280904 -1,1 -2,2 -3,3 0.66667,-1.666667 -0.0352,-0.596248 0.63145,-2.262915 -1.95833,0.65625 1.10132,-0.968404 -0.85701,-0.312154 1,-1 -3.47417,2.105627 -2.47417,1.105627 -0.30208,-1.322917 -2.42889,-0.821111 -2.73097,-2.144028 -3.34375,1.989583 12.92827,-15.636604 -0.45146,-0.87396 14.69585,-15.720631 -5.27806,2.316112 -4.26764,1.649445 -1.0625,-3.302083 -10.33625,5.712713 -11.39875,2.41063 -0.45833,1.645833 7.29458,-5.375767 6.83625,-3.729934 -1.09375,-1.666667 -10.39875,5.334101 -11.4925,3.667434 8.99687,-6.97796 3.41866,-5.661113 2.34917,-5.44903 -1.77083,-1.25 -2.62931,-2.5 -4.40014,-3.75 0.75,-2.604167 -4.88653,1.178197 -4.13653,-1.42597 -0.1379,-0.04781 -0.29696,-0.106653 -0.4375,-0.03125 z"
     id="path256"
     sodipodi:nodetypes="cccccccccccccccccccccccccccccccccccccccccccccccccccccccccccccccccccccccccccccccccccccccccccccccccccccccccccccccccccccccccccccccsccccccccccccccccc" />
  <path
     d="m 239.95492,14.842341 0.334,0.666 -0.334,-0.666 z"
     id="path304"
     style="fill:#504b4c;stroke:none" />
  <path
     style="fill:#8f8c8f;stroke:none"
     d="m 243.63356,14.171747 -3,3 3,-3 z"
     id="path306" />
  <path
     style="fill:#415679;stroke:none"
     d="m 107.94606,77.484247 c -3.87554,0.37338 -6.84474,3.473675 -8.531248,6.78125 -1.35602,1.254854 -3.70734,1.55742 -4.25,3.5625 -1.3025,1.92516 -3.63084,2.874843 -4.84375,4.875 0.0972,1.109436 -0.38088,2.326578 -1.46875,2.71875 -0.65561,0.938088 0.4921,2.186846 1.4953,1.752031 3.69099,0.01695 7.37816,0.205747 11.067198,0.310469 1.7855,-2.388267 5.08719,-4.297729 8.04875,-2.936363 2.56067,1.194192 5.22358,2.627927 8.13875,2.436363 1.25555,0.791448 0.62602,2.505135 -0.0625,3.468753 0.21472,1.24019 1.8652,0.90824 2.53125,0.25 1.30208,-0.54167 2.60417,-1.083336 3.90625,-1.625003 1.07274,1.280813 0.58614,3.413993 -0.8125,4.250003 -0.21447,1.20451 1.57408,1.36303 2.25,0.71875 1.68917,-0.3434 3.3768,-0.69927 5.03125,-1.1875 1.5263,-3.33954 2.74091,-6.808016 4.09375,-10.218753 -0.51658,-1.403988 -2.35025,-1.025127 -3.38839,-1.786873 -1.26637,-0.508542 -2.53274,-1.017085 -3.79911,-1.525627 -0.60639,-1.348997 1.37699,-2.622793 2.46875,-1.75 1.46593,0.03801 1.55186,-2.515416 0.15625,-2.6875 -2.28583,-1.416363 -4.5576,-2.864306 -6.96875,-4.0625 -1.28904,0.175226 -2.36638,0.957049 -3.5625,1.40625 0.0684,-1.368791 1.73832,-2.497669 0.96875,-3.90625 -1.11048,-0.884167 -2.93067,-0.139663 -3.28125,1.1875 -1.91642,0.963488 -3.37878,-1.241104 -5.14324,-1.585777 -1.30357,-0.400696 -2.68474,-0.546386 -4.04426,-0.445473 z M 84.758562,102.203 c 0.17616,0.0442 -0.0308,-0.27332 0,0 z m -0.21875,0.5625 c -0.71495,1.20738 -1.73933,2.26426 -2.09375,3.65625 1.07225,-0.2827 -0.17504,1.61313 0.85101,1.83175 0.83953,0.80917 1.96163,1.20106 2.93024,1.8245 0.0241,-1.42793 -1.32864,-2.48789 -1.17332,-3.95616 -0.0621,-1.12801 0.0203,-2.2899 -0.29543,-3.38759 -0.0686,0.0288 -0.15929,-0.0362 -0.21875,0.0312 z m -36.21875,51.84375 c -0.8585,0.49627 -2.42647,1.36255 -1.71875,2.5625 0.66384,1.7344 -0.6198,3.35685 -1.65625,4.625 -0.12468,1.39841 1.6772,1.52235 2.6826,1.3663 1.71603,-0.13768 4.19137,-0.002 4.72365,2.0087 0.18001,1.30927 -0.57103,2.57431 -1.53125,3.40625 -0.12004,1.11188 1.8028,1.22169 2.03125,0.21875 0.80492,-0.77083 1.99281,0.82754 1.15625,1.46875 -0.57621,3.06166 -4.88352,3.88795 -4.8578,7.20909 0.0681,1.10843 -0.10832,2.26413 0.0782,3.33708 0.84332,1.71451 3.10169,1.39627 4.62601,2.03329 0.59144,0.37169 3.28677,0.45781 2.27724,1.04679 -1.9579,1.17667 -3.91579,2.35333 -5.87369,3.53 3.34375,-0.3125 6.6875,-0.625 10.03125,-0.9375 1.85417,1.9375 3.70833,3.875 5.5625,5.8125 -1.33333,-0.32292 -2.66667,-0.64583 -4,-0.96875 0.42038,2.79146 2.28683,5.59938 5.15625,6.28125 1.52338,-0.15022 2.83293,-1.14713 3.6875,-2.375 1.97917,1.64583 3.95833,3.29167 5.9375,4.9375 2.33333,-1.33333 4.66667,-2.66667 7,-4 1,2.33333 2,4.66667 3,7 -0.63542,-4.64583 -1.27083,-9.29167 -1.90625,-13.9375 -5.35337,-0.68995 -9.16299,-4.87949 -13.56641,-7.55819 -4.59324,-2.74669 -9.90913,-4.84694 -13.12109,-9.34806 -1.555,-2.68057 -0.96456,-6.12992 0.625,-8.65625 -1.58349,-0.29361 -2.51979,1.29459 -3.71875,2 -1.30953,-0.30917 -0.74389,-1.95709 -0.3125,-2.78125 0.83351,-1.4591 1.72924,-3.69208 0.125,-4.96875 -1.75231,-1.09739 -3.50865,0.6109 -5.17748,1.05624 -0.96148,0.3966 -2.48637,1.18871 -1.64061,-0.45856 0.33971,-1.20351 1.08429,-2.83341 0.38059,-3.91018 z m -0.9375,26.375 c -0.81718,0.95578 1.47263,0.2356 0.0312,-0.0625 l -0.0312,0.0625 z"
     id="path372" />
  <path
     style="fill:#b3b7bd;stroke:none"
     d="m 118.57106,68.077997 c -0.32105,-0.05351 -0.16655,-0.02776 0,0 z m 0.875,0.40625 c -0.81005,0.673884 -1.34297,1.756053 -1.03125,2.8125 0.43388,-0.705021 0.35979,-2.287452 1.5625,-2 1.39325,0.527262 2.43315,2.46579 1.375,3.75 -0.12426,1.196567 2.19779,1.023233 1.875,-0.15625 0.23506,-2.119427 -1.47524,-3.97115 -3.375,-4.625 -0.13542,0.07292 -0.27083,0.145833 -0.40625,0.21875 z"
     id="path430" />
  <path
     style="fill:#efeff0;stroke:none"
     d="m 123.00856,73.765497 c -1.23958,-1.645833 -2.47917,-3.291667 -3.71875,-4.9375 1.23958,1.645833 2.47917,3.291667 3.71875,4.9375 z"
     id="path434" />
  <path
     style="fill:#b3b7bd;stroke:none"
     d="m 108.25856,78.827997 c -1.35027,0.04345 -0.34897,2.504329 0.625,1.53125 0.62366,-0.413156 0.15991,-1.770143 -0.625,-1.53125 z"
     id="path466" />
  <path
     style="fill:#616e89;stroke:none"
     d="m 103.25856,93.015497 c -1.94499,0.489061 -2.44732,2.688154 -3.604828,4.056011 -0.67871,1.025117 -2.02456,0.94069 -3.08267,0.725239 -1.32138,-0.107897 -3.01839,-0.639301 -3.99076,0.587653 -1.19113,1.438949 -6.104,-0.963373 -7.19831,0.546474 -1.49447,2.261606 1.24639,8.709846 -0.21718,10.990876 -0.50956,-8.59981 -1.78764,-5.15401 -2.88111,-5.39265 -4.64148,0.0104 -12.98831,9.19255 -8.9932,10.1739 -4.42236,2.86505 -4.42976,5.6097 -8.21944,9.3125 -0.72549,0.75547 -1.81967,0.94337 -2.72301,1.22301 -0.81549,0.77535 0.72156,1.34673 1.25426,0.74574 2.06592,-1.13498 3.69622,-2.89932 5.375,-4.53125 1.07914,-1.21647 3.21724,-1.64148 4.46875,-0.46875 0.66598,1.14653 -1.13544,2.12855 -0.5,3.28125 0.94508,0.83931 2.41648,-0.45976 3.25,0.59375 -0.1264,0.68087 -1.15026,1.80508 -0.1875,2.21875 1.45468,-0.0301 2.48611,-1.31957 3.78125,-1.84375 0.81931,-0.44257 1.73098,-1.20306 2.71875,-0.875 0.6534,0.85341 -0.43507,1.63186 -0.84375,2.3125 -0.90701,0.81847 0.61034,2.10375 1.15625,0.9375 0.45654,-0.7868 0.98264,-2.10184 2.125,-1.78125 0.96261,0.38451 1.36313,1.93086 2.59375,1.625 0.9677,-0.34709 1.0718,-1.7107 2.0625,-2.03125 1.19368,0.43119 0.25391,1.74538 0.25,2.58906 0.35279,0.83609 1.82509,0.64835 2.03125,-0.21406 1.04933,-1.02335 1.80025,-2.36645 3.0625,-3.15625 1.27403,0.003 0.69294,1.62033 0.35313,2.3156 -0.45469,1.44958 -1.02323,2.91176 -1.26478,4.39662 0.32171,1.00007 1.6903,0.33998 2.09915,-0.27472 0.75657,-0.82943 2.2966,-0.0732 2.25,1 0.20041,0.96998 1.885738,1.20683 2.093748,0.125 0.71108,-2.46551 0.83678,-5.04145 1.25,-7.5625 -0.35964,-0.88932 0.63149,-2.26734 1.59375,-1.625 0.81132,0.67469 1.32209,1.71858 2.34375,2.125 1.1549,-0.16171 1.63476,-1.4121 2.1875,-2.28125 1.0986,0.57045 0.0577,1.80713 -0.28863,2.54392 -1.17462,2.83953 -2.34925,5.67905 -3.52387,8.51858 3.22917,-2.9375 6.45833,-5.875 9.6875,-8.8125 -1.05208,1.83333 -2.10417,3.66667 -3.15625,5.5 3.82292,-1.9375 7.64583,-3.875 11.46875,-5.8125 -1.77083,3.22917 -3.54167,6.45833 -5.3125,9.6875 3.05208,-2.89583 6.10417,-5.79167 9.15625,-8.6875 2,1.01042 4,2.02083 6,3.03125 -0.5625,2.41667 -1.125,4.83333 -1.6875,7.25 1.11458,-1.08333 2.22917,-2.16667 3.34375,-3.25 0.19715,1.28357 2.21471,1.91133 2.90625,0.6875 2.14273,-0.77576 4.70227,0.82698 5.03125,3.0625 2.81743,2.11686 6.507,1.98582 9.71875,3.09375 0.88286,0.76619 1.17804,2.08099 0.875,3.1875 1.11734,0.99093 2.77429,0.43771 3.84375,-0.34375 1.09,-0.22108 1.58177,1.75755 0.5,2.0625 -1.06417,0.45665 0.0506,2.25412 0.96875,1.625 0.47251,-1.08087 2.44305,-0.59823 2.3125,0.59375 -0.68073,0.7742 0.31716,2.30375 1.28125,1.75 1.00108,-0.42706 2.25112,0.42614 2.28125,1.5 0.40804,1.28097 0.84613,2.5516 1.3125,3.8125 -0.28013,-3.25311 -0.59272,-6.5031 -0.9375,-9.75 1.66667,0.35417 3.33333,0.70833 5,1.0625 -0.33333,2.33333 -0.66667,4.66667 -1,7 0.98468,0.29231 2.2015,-0.51052 3,0.375 0,1.20833 0,2.41667 0,3.625 2.66667,0.66667 5.33333,1.33333 8,2 -0.66667,1.66667 -1.33333,3.33333 -2,5 2,-0.33333 4,-0.66667 6,-1 -0.66667,1.66667 -1.33333,3.33333 -2,5 3.46858,1.82299 7.21487,3.71136 11.25,3.40625 2.87805,-0.26243 5.33748,-1.96459 7.625,-3.59375 1.02578,0.0163 0.81542,1.37673 0.40625,1.96875 -0.51179,0.82015 -1.31104,2.01633 -0.67206,2.92953 0.99272,0.74557 2.27231,0.1712 3.39081,0.19547 0.92486,-0.36988 2.30467,0.68469 1.65625,1.65625 -0.62107,0.63953 -0.38384,2.37028 0.72206,1.53453 1.0144,-0.6001 1.95354,-1.33584 2.93517,-1.9857 0.70463,-0.85737 2.10027,-0.96344 2.50781,0.22837 0.74558,1.56964 1.69721,3.01987 2.49177,4.56758 0.56232,1.03091 1.12463,2.06181 1.68694,3.09272 1.33333,-0.33333 2.66667,-0.66667 4,-1 0,1.33333 0,2.66667 0,4 0.8739,-0.36036 1.05488,-1.88248 2.1875,-1.6875 1.27083,1.89583 2.54167,3.79167 3.8125,5.6875 -1.33333,0 -2.66667,0 -4,0 -0.71168,1.20568 1.07574,2.83962 2.15625,1.84375 1.17472,0.57927 0.2877,2.44874 1.5625,2.90625 1.48955,0.58733 2.95813,1.22314 4.40625,1.90625 0.29194,-2.47584 -1.51679,-4.46726 -2.1875,-6.71875 -1.17084,-0.29527 -0.3118,-2.32009 0.71875,-1.78125 2.98398,1.00088 5.52723,3.86443 5.40625,7.125 -0.46743,0.84301 0.37077,2.10407 1.34375,1.84375 0.41512,-0.63933 1.35334,-1.44872 2.125,-0.90625 0.36526,0.75032 1.41112,1.75953 2.1875,0.9375 0.76651,-1.70889 0.21214,-3.63076 0.32917,-5.43222 -0.0733,-0.96842 -0.21837,-1.95297 0.0146,-2.91153 -2.09217,-1.69806 -5.14145,-2.12652 -6.6875,-4.5 -0.79287,-0.59754 -0.90198,-1.72002 -0.6875,-2.625 -1.0454,-0.62452 -2.01835,0.48366 -2.625,1.21875 -0.71976,0.81418 -1.83699,1.207 -2.90625,1.1875 -0.75339,-0.90073 0.21057,-1.94632 0.6875,-2.71875 0.32811,-0.89584 -0.17,-2.11728 0.75,-2.75 1.49732,-0.454 3.34982,0.38599 4.59375,-0.84375 1.19402,-0.9366 2.0349,-2.24791 3.28125,-3.125 1.38116,1.1632 1.07632,3.16965 0.8125,4.75 -0.50817,1.3051 -1.7087,2.56237 -1.28125,4.0625 1.04277,1.61732 3.1453,1.53595 4.8125,1.9375 3.24302,0.76027 6.49299,1.48959 9.75,2.1875 1.07588,1.17575 0.14934,3.00555 -1,3.75 -0.62448,0.55576 -0.36279,2.02764 0.625,1.84375 1.82161,-0.52431 3.46517,-1.52661 5.28125,-2.0625 0.66821,-0.27333 1.95992,-1.30524 2.37669,-0.26633 0.46965,1.14736 -0.23226,2.72658 0.87331,3.61008 1.30097,1.54669 4.12038,1.40585 5.15625,-0.375 0.73272,-0.90351 2.29185,0.55619 1.4375,1.34375 -0.34267,1.12303 -0.75843,2.2354 -0.90625,3.40625 0.65941,1.09178 2.08169,0.4229 3.08488,0.78883 1.89599,0.37596 3.64993,1.34421 5.04012,2.67992 0.5479,1.0875 -0.62775,2.43585 0.3125,3.40625 1.04958,0.61878 2.7207,0.1616 3.34375,1.4375 1.94822,3.34333 2.90887,7.15022 4.84375,10.5 1.08883,1.18894 2.83434,1.22019 4.125,2.09375 -0.7721,0.12243 -2.13178,0.33391 -1.9375,1.40625 0.59569,1.39485 2.29915,1.45659 3.59375,1.59375 1.08023,0.39863 1.16969,1.85431 0.6875,2.75 -0.18951,1.18732 -0.35444,2.64139 0.59375,3.5625 1.32558,0.55073 2.38236,-0.73859 3.53125,-1.15625 0.81021,-0.44069 1.52006,-1.47822 2.5625,-1.1875 1.00376,0.644 -0.47238,2.04402 0.59375,2.65625 0.92635,0.18326 2.53846,-0.42806 2.6821,0.99347 0.0891,1.11077 -1.32178,1.84704 -0.9946,2.97528 1.04561,1.42277 2.99616,1.37171 4.54375,1.83221 0.94473,0.26865 2.22417,0.43606 2.65361,1.43967 0.25836,0.99429 -0.19045,1.98059 -0.47861,2.91562 0.58103,1.25965 1.62906,-0.34308 2.15625,-0.75 1.13626,-0.0446 1.27878,1.34001 1.51422,2.16181 0.68245,2.17942 1.34023,4.36633 1.98578,6.55694 1.0413,0.72736 2.41212,-0.0849 3,-1.03125 0.62803,-0.297 0.78864,-2.68832 1.4375,-1.75 0.0656,0.91329 1.04552,1.76887 1.85101,1.012 1.01829,-0.39512 2.0596,0.18079 3.05524,0.238 1.13272,-0.26782 1.57353,-1.62239 1.34375,-2.65625 0.0178,-0.97477 0.62206,-2.23876 -0.3125,-2.96875 -0.97145,-0.61435 -2.14871,-0.24112 -3.21875,-0.375 -0.79773,-0.78726 -0.0703,-1.94777 0.4375,-2.6875 0.46213,-0.92589 -0.51054,-2.05747 -1.49456,-1.7978 -0.8507,0.0356 -2.09759,-0.7906 -1.59919,-1.73345 0.43248,-1.17071 0.63333,-2.86011 -0.59375,-3.625 -0.85527,-0.71403 -1.6987,-1.49378 -2.75,-1.90625 -1.09357,0.0566 -1.62449,1.29715 -2.6875,1.4375 -1.6546,-1.20295 -1.89078,-3.74569 -3.9375,-4.5 -1.07553,-0.59991 -2.42676,-0.73131 -3.5625,-0.21875 -0.48275,0.87319 -2.27083,0.64645 -2.15625,-0.5 -1.11941,-5.19454 -3.22375,-10.37046 -7.09801,-14.12926 -0.9993,-1.11348 -2.49644,-1.743 -3.34261,-2.97886 -0.37906,-1.00066 0.002,-2.29869 -0.84063,-3.11063 -0.94011,-0.41438 -2.29162,0.0974 -2.9375,-0.90625 -1.02575,-1.80868 -0.18086,-3.90267 -0.375,-5.84375 -0.60556,-0.93546 -1.98089,-0.46411 -2.5,0.3125 -0.8132,0.3867 -1.62228,1.47528 -1,2.34375 0.22306,1.11098 -1.57276,1.50303 -2.03125,0.5625 -3.72631,-2.74612 -7.50696,-5.84369 -9.40625,-10.1875 -0.40241,-0.86327 -0.79719,-2.0346 -1.93097,-2.08835 -1.43882,-0.20266 -2.63546,0.83121 -3.97528,1.1196 -1.20928,0.37629 -1.20288,-1.36904 -0.22524,-1.63608 0.78901,-0.19788 1.6335,-1.06566 0.81899,-1.80142 -0.69534,-0.57734 -1.5267,0.0885 -2.3125,0 -1.06086,0.11634 -1.65015,-0.8529 -1.70032,-1.79527 -0.32215,-1.78817 -0.35131,-3.63218 -0.71132,-5.40571 -0.36383,-0.98203 -1.639,-0.81756 -2.48956,-0.93542 -2.09272,-0.0858 -4.22875,0.38877 -6.2863,-0.1761 -0.99371,-1.03375 0.48578,-2.75206 -0.75,-3.6875 -3.04655,-0.12254 -5.26414,-3.76066 -4,-6.53125 -0.0451,-2.39864 -2.10768,-4.30592 -4.3125,-4.90625 -0.7674,0.57953 -1.99363,1.1994 -2.8125,0.375 -0.99001,-1.66404 1.3087,-3.87503 2.9375,-2.8125 1.06464,0.17571 1.72801,-1.60315 0.625,-2 -2.52004,-2.33627 -5.10497,-4.60122 -7.625,-6.9375 -1.54548,-0.0935 -2.72983,1.04296 -4.0625,1.625 -0.89358,3.42037 -0.6497,6.98999 -1.125,10.46875 0.5054,0.99853 -1.32632,1.79906 -1.78125,0.8125 -1.46875,-0.72917 -2.9375,-1.45833 -4.40625,-2.1875 2,2.66667 4,5.33333 6,8 -2.33333,1.33333 -4.66667,2.66667 -7,4 -3.33333,-4 -6.66667,-8 -10,-12 -3.43787,0.21377 -7.15494,0.57543 -10.28125,-1.1875 -0.65771,-0.59454 -1.99027,-0.78912 -1.9375,-1.90625 0.47614,-1.08276 1.9054,-1.06778 2.875,-0.78125 1.06685,0.0743 1.71729,-1.24855 1.34375,-2.15625 0,-1.98958 0,-3.97917 0,-5.96875 -2.33333,0 -4.66667,0 -7,0 -0.46927,0.92202 -0.43506,2.0576 -1.125,2.875 -1.625,-1.625 -3.25,-3.25 -4.875,-4.875 -1.62981,-0.0625 -3.4886,-0.74044 -4.125,-2.375 -0.11385,-1.51942 1.61499,-2.70319 1.03125,-4.25 -1.99482,0.11646 -3.79605,1.57448 -5.84375,1.125 -0.65179,-0.57293 -1.84726,-1.22271 -2.53125,-0.34375 -0.49835,0.87779 0.68398,1.90763 -0.0625,2.71875 -2.04037,0.19791 -3.47341,-1.58884 -5.28851,-2.1755 -1.15043,-0.75733 -1.61572,-2.21786 -1.61774,-3.54325 -0.62987,-2.01033 -0.26994,-4.25395 0.84375,-6.03125 0.18239,-0.71693 1.49115,-1.90901 0.59375,-2.40625 -1.12794,0.17079 -1.7939,1.25749 -2.85273,1.61164 -1.4013,0.74154 -2.77874,1.52575 -4.14727,2.32586 -1.35417,-2.71875 -2.70833,-5.4375 -4.0625,-8.15625 -2.00969,-0.39849 -4.30617,0.361 -5.4375,2.125 -1.82533,-0.65584 -2.46558,-2.70015 -2.90625,-4.40625 -0.58333,-1.65625 -1.16667,-3.3125 -1.75,-4.96875 -2.28125,0.64583 -4.5625,1.29167 -6.84375,1.9375 2.30208,-2.69792 4.60417,-5.39583 6.90625,-8.09375 -4.26574,-0.75743 -8.69132,-1.87189 -12.99375,-0.71058 -1.27093,0.32765 -2.41929,1.13667 -3.13125,2.24183 -0.70368,-0.88362 0.40262,-1.88919 0.1875,-2.84375 0.22917,-1.36458 0.45833,-2.72917 0.6875,-4.09375 -2.44792,1.08333 -4.89583,2.16667 -7.34375,3.25 -0.41667,1.39583 -0.83333,2.79167 -1.25,4.1875 -4.45833,-1.21875 -8.91667,-2.4375 -13.375,-3.65625 1.26134,-1.91057 3.589,-3.07109 5.875,-2.875 0.7297,1.03309 2.83682,0.36632 2.5625,-0.96875 0.29611,-1.09043 0.55436,-2.23943 1.25,-3.15625 1.42921,0.82921 3.59108,-0.65817 3.09375,-2.3125 0.92533,-0.918321 2.65288,-0.726503 3.25,-2.031253 0.28781,-1.751814 -2.57421,-2.62596 -3.375,-1.0625 -0.86873,1.210802 -0.84829,3.159353 -2.4375,3.750003 -2.37406,0.61114 -4.73871,1.25674 -7.09375,1.9375 -0.41977,-1.00294 0.74136,-1.64504 1.375,-2.1875 0.8826,-0.872201 0.81634,-2.736113 -0.46875,-3.187503 -1.63727,-0.09854 -2.92346,1.077403 -4.375,1.625 -0.40514,1.035513 -2.39685,0.507567 -1.65,-0.622494 0.39857,-0.905324 1.14825,-1.835442 0.8375,-2.877506 -1.15983,-1.065944 -2.92509,-0.735477 -4.19904,-1.603808 -1.46503,-0.666344 -3.07538,-1.209906 -4.70721,-1.052442 z m 214.625,152.093753 c -0.12603,0.319 0.30585,-0.26533 0,0 z m 2.1875,1.03125 c 0.28962,1.31416 -1.05839,2.56996 -0.3125,3.84375 0.89543,2.46338 2.59374,4.55844 3.3125,7.09375 0.71942,1.37161 2.88868,1.39124 3.75,0.15625 0.74224,-0.81694 2.31857,-0.15082 2.28125,0.9375 0.60855,2.01135 0.75641,4.39091 2.46875,5.84375 1.1907,0.79164 3.02142,-0.31357 3.9375,1.03125 0.5281,0.82515 -0.35921,2.24018 0.7608,2.73049 1.5519,0.51601 3.1031,-0.33966 4.64545,-0.48049 1.10357,-0.2935 1.84664,0.87504 1.95239,1.83314 0.5716,1.93668 0.64494,4.08905 1.88195,5.76655 0.9858,2.06683 2.57304,3.75645 4.19691,5.33781 0.78974,1.54759 0.0996,3.26301 -0.1875,4.84375 0.50685,1.08354 2.01782,0.82957 2.84375,0.28125 2.90422,1.82011 4.07678,5.2089 5.85274,7.96744 1.39284,2.28169 2.78567,4.56337 4.17851,6.84506 0.99621,-0.22121 1.89334,-0.83336 2.9375,-0.84375 -0.64583,1.61458 -1.29167,3.22917 -1.9375,4.84375 3.33333,1.66667 6.66667,3.33333 10,5 -4.45671,-7.57916 -6.98486,-16.0555 -10.04604,-24.24408 -0.89993,-2.23167 -2.35973,-4.34163 -4.51646,-5.50592 -0.77844,-0.63434 -1.92645,-1.29567 -2.875,-0.59375 -0.79199,0.41305 -1.60281,1.16414 -2.5625,0.875 -3.0273,-5.44247 -5.49223,-11.32863 -9.81629,-15.91944 -1.4988,-1.72271 -3.6733,-2.56097 -5.58996,-3.70556 -0.84946,-0.81172 0.52725,-2.18989 -0.46875,-2.90625 -1.19022,-0.40413 -1.87963,1.22503 -3.0625,0.875 -1.00533,-0.2494 -1.6192,-1.17121 -1.85796,-2.11933 -0.50823,-1.25445 -0.81821,-2.70991 -1.92329,-3.59942 -0.87431,-0.32676 -2.19602,0.05 -2.625,-1.03125 -0.20831,-1.02504 1.13895,-1.63629 0.90625,-2.65625 -2.01763,-1.71481 -4.86838,-1.45583 -7.1875,-2.5 -0.31005,-0.0312 -0.63634,-0.13248 -0.9375,0 z"
     id="path476"
     sodipodi:nodetypes="cccccccccccccccccccccccccccccccccccccccccccccccccccccccccccccccccccccccccccccccccccccccccccccccccccccccccccsccccccccccccccccccccccccccccccccccccccccccccccccccccccccccccccccccccccccccccccccccccccccccccccccccccccccccccccccccccccccccccccccccccccccccccccccccccccccccc" />
  <path
     style="fill:#415679;stroke:none"
     d="m 149.63356,89.171747 -3,6 c 7.071,-0.366 4.159,3.533 8,7.000003 l -1,4 -6,-2 0,-4 -6,0 -1,-4.000003 -2,0 -1,8.000003 -7,-4 0,4 -3,0 -1,5 -1,-3 -6,4 14,2 5,-5 -2,7 c 5.803,-4.154 8.508,-2.431 15,-2 l -6,8 6,-2 3,10 3,-3 3,0 4,8 8,-5 -3,6 1,6 7,4 -1,-5 4,2 5,-2 0,2 c -4.201,2.83 -0.92,5.34 3,5 l 5,5 1,-3 7,0 0,8 -5,0 c 1.733,5.223 8.28,4.751 13,4 l 10,12 7,-4 -6,-8 6,3 c 2.335,-5.304 4.02,-6.424 1,-12 l 3,-2 11,9 -6,0 1,5 2,-3 5,4 -1,4 2,4 3,0 0,4 c 5.614,-0.066 9.005,-1.482 11,-7 l -6,0 3,-13 -5,2 4,-5 0,-5 -6,3 2,-4 -3,0 0,-9 -5,1 4,1 -2,5 1,3 c -4.449,-1.29 -5.456,-3.853 -7,-8 l -4,-1 -4,3 3,-6 c -1.694,-4.176 -3.484,-5.656 -8,-6 l 0,-4 -5,-2 0,4 -2,0 0,-6 -6,4 0,-6 2,-3 -9,0 c 1.645,8.172 4.767,10.503 1,19 l 4,0 -1,4 -8,-5 c 3.939,-1.114 4.943,-3.065 4,-7 l -3,3 1,-11 -10,2 0,-4 5,0 -1,-3 -5,1 0,4 -9,-6 2,-5 4,0 -2,-10.000003 -6,9.000003 0,-17.000003 -1,5 -4.625,4.625003 -1.375,-7.625003 -5,-1 2,8.000003 -4,0 -1,7 -6,-3 4,0 -3,-2 4,-6.000003 -7,1 4,-5 -6,2 2,-4 c -3.119,0.694 -5.032,1.896 -7,-1 l -2,0 z"
     id="path504" />
  <path
     style="fill:#8f8c8f;stroke:none"
     d="m 143.91481,105.703 c 0.16836,-0.46298 0.16867,-0.46386 0,0 z"
     id="path534" />
  <path
     style="fill:#6496bd;stroke:none"
     d="m 75.602312,121.85925 c -0.28125,-1.27083 -0.5625,-2.54167 -0.84375,-3.8125 -0.90428,0.62425 -2.42454,1.68241 -3.3125,0.5 -0.38711,-0.54075 -1.74471,-2.12608 -1.71537,-0.56722 0.0392,2.18744 0.20954,4.55819 -0.97213,6.50472 -0.42708,-1.65625 -0.85417,-3.3125 -1.28125,-4.96875 -3.58575,4.21494 -6.74092,8.76708 -10.0625,13.1875 -0.65597,2.10338 -2.69927,3.40816 -3.5207,5.4457 -1.77232,3.30463 -3.86573,6.43425 -6.3543,9.2418 -1.5543,2.31576 -3.01749,4.89976 -2.9375,7.78125 -0.0676,0.82661 -0.97186,2.27977 0.21875,2.625 1.47275,-0.21598 2.65913,-1.24106 4.03851,-1.738 1.02772,-0.71895 2.56207,-0.52957 3.13367,0.6655 1.15799,1.53165 0.37583,3.46812 -0.14093,5.0725 0.0341,0.73615 -1.02025,2.58854 0.0312,2.53125 1.18342,-0.22175 1.78013,-1.52424 2.92795,-1.85908 0.47333,-0.38832 2.36463,-1.85774 1.3022,-0.35099 -2.35691,3.78045 -1.289,9.33779 2.50799,11.77465 5.44999,4.31741 11.91436,7.10082 17.47518,11.2601 2.41083,1.46644 5.03934,2.64499 7.13043,4.58157 1.56708,-0.29603 0.26135,-2.76905 1.875,-3.03125 0.92734,-0.33097 2.13721,-0.44695 2.84375,0.375 -0.21073,1.82333 -2.44703,3.02383 -1.90625,5 1.1638,1.83291 3.05751,3.05052 4.34375,4.78125 1.16433,0.74969 2.0246,-0.69935 2.9375,-1.125 1.09741,0.3134 0.52505,1.78587 0.75,2.625 0.007,1.20454 0.95213,1.95826 1.91016,2.4838 4.884108,3.4429 9.768228,6.8858 14.652338,10.3287 0.33333,2.33333 0.66667,4.66667 1,7 5.66667,3.33333 11.33333,6.66667 17,10 -0.19052,1.03892 0.47374,2.48841 -0.65625,3.15625 2.35608,0.70182 4.84519,0.438 7.25,0.8125 1.48319,0.9772 0.36293,3.58537 2.25,4.1875 4.65854,0.45347 9.17283,2.79015 12.03125,6.53125 1.366,0.79119 3.56529,-0.31473 4.40625,1.40625 1.21586,2.9017 3.91653,5.1051 7,5.71875 1.8765,1.22758 2.07287,3.69308 3.40625,5.34375 -0.65567,1.2368 -2.05729,-0.15027 -2.96126,0.16875 -1.2658,0.93115 -0.0482,2.54204 -0.10124,3.76875 0.0275,0.93485 0.76588,2.14691 1.83794,1.69856 1.45913,-0.1215 2.98182,-1.01434 4.41206,-0.29231 0.56844,0.95245 -0.39989,2.1528 0.3125,3.0625 1.29945,0.24303 2.16032,-1.06781 3.34375,-1.3125 0.5126,1.20305 -0.78785,2.14228 -1.03125,3.25 -0.79841,1.12666 0.43558,1.42679 1.06351,0.56189 1.1455,-0.68729 2.29099,-1.37459 3.43649,-2.06189 -0.54515,2.67548 -0.0556,5.94716 2.34375,7.59375 0.92164,-0.88253 0.12369,-2.18041 -0.1875,-3.15625 1.25962,-0.43264 1.48077,1.88605 2.75,1.34375 1.02819,-0.20155 2.38359,-1.04394 3.21875,0 0.61281,1.69721 -0.008,3.86618 1.4375,5.21875 2.6536,0.59722 5.42438,2.84271 5.125,5.8125 -0.41526,1.70784 -2.47298,2.24373 -3.03125,3.875 0.88142,1.68843 3.0746,1.56023 4.55756,2.41865 8.9345,3.61709 17.86294,7.24909 26.78619,10.89385 2,-2 4,-4 6,-6 -0.33333,3.66667 -0.66667,7.33333 -1,11 5.9253,0.50378 10.82812,4.35219 14.95344,8.33518 3.77121,3.34007 8.89542,5.24069 13.94328,4.67497 1.36776,0.0647 2.7355,0.0428 4.10328,-0.0102 1.14096,3.05788 4.79808,4.57448 7.875,3.90625 1.45534,0.45445 1.32636,2.28258 1.03125,3.46875 0.98485,0.45276 1.01224,-1.78044 2.1875,-1 1.51269,0.19947 2.78907,1.19393 4.3125,1.375 0.65457,1.13948 -1.0086,1.75951 -1.42884,2.64101 -0.99247,1.203 -1.98494,2.40599 -2.97741,3.60899 2.66667,0 5.33333,0 8,0 -0.33333,1.66667 -0.66667,3.33333 -1,5 4.66667,0.66667 9.33333,1.33333 14,2 -0.66667,1.66667 -1.33333,3.33333 -2,5 6,0.66667 12,1.33333 18,2 -2.66667,-2.66667 -5.33333,-5.33333 -8,-8 -3,-1 -6,-2 -9,-3 0.29906,-1.47464 -0.19886,-3.57459 -1.96875,-3.75 -10.81794,-4.36115 -19.52377,-12.35267 -28.58215,-19.45553 -7.37369,-5.81159 -15.37846,-11.41241 -24.72317,-13.38702 -1.23463,-0.19265 -2.4841,-0.2724 -3.72593,-0.40745 -1.33333,-3.33333 -2.66667,-6.66667 -4,-10 -1.66667,0.66667 -3.33333,1.33333 -5,2 0.33333,-1.66667 0.66667,-3.33333 1,-5 -2.36913,1.48573 -5.33807,0.18613 -7.2218,-1.49592 -3.2594,-1.83469 -6.5188,-3.66939 -9.7782,-5.50408 -0.52597,1.01816 -2.4701,0.66166 -2.375,-0.5625 -0.64561,-0.50326 -0.46668,-2.27074 0.59375,-1.78125 1.18069,0.26968 1.4881,-1.64273 0.5,-2.0625 -1.96761,-3.02119 -5.6551,-4.96546 -9.28125,-4.53125 -0.36431,-2.29224 1.16515,-4.30475 1.375,-6.53125 -0.58548,-1.29338 -2.68505,0.22063 -1.84375,1.25 0.63846,1.26792 -1.05523,2.53967 -2.17986,1.81105 -0.88472,-0.27102 -2.47666,-0.31876 -2.58174,-1.41694 -0.11091,-1.59436 0.0902,-3.71196 -1.58215,-4.58161 -0.89853,0.20407 -1.9656,-1.32694 -0.8125,-1.71875 0.92025,-0.51302 2.51366,-0.8413 2.40625,-2.1875 -0.63394,-1.40677 -2.92812,-1.51158 -2.96875,-3.28125 0.3937,-0.96125 0.94098,-2.63312 -0.375,-3.125 -4.625,-3.09375 -9.25,-6.1875 -13.875,-9.28125 -0.33333,-2 -0.66667,-4 -1,-6 -1.07621,0.12417 -2.04297,1.16694 -3.15625,0.6875 0.27213,-0.93816 -0.9578,-2.09924 -1.78125,-1.34375 -2.12403,-0.49787 -2.97557,-2.86961 -4.89564,-3.73549 -4.79667,-3.80452 -10.54747,-6.31168 -16.51061,-7.60826 -1.53364,-1.48105 0.0485,-3.72075 -0.90625,-5.40625 -1.43106,-0.5464 -2.46293,1.69522 -3.875,0.8125 -1.43026,-3.46779 -3.3287,-7.18075 -2.3125,-11.03125 0.0874,-0.54532 0.84511,-2.42756 -0.31127,-1.74686 -2.05642,1.12992 -3.70988,2.85948 -5.78248,3.96561 -0.26693,-1.13044 0.8466,-2.0002 1.06697,-3.06344 0.82142,-1.84344 1.64285,-3.68687 2.46428,-5.53031 -0.94872,0.68555 -2.47595,-0.71889 -1.625,-1.65625 1.16155,-3.20407 -0.66742,-6.3789 -1.09375,-9.53125 -1.14739,-0.66023 -1.91885,0.80736 -2.53125,1.53125 -1.50517,0.81673 -2.60901,-0.96774 -3.8125,-1.5625 -1.77043,-1.20519 -0.64318,-3.62686 -1.42812,-5.3156 -0.77735,-2.45618 -2.2481,-4.62684 -3.88438,-6.59065 -0.0834,-1.35999 -2.35117,-1.85559 -2.84375,-0.5 -1.05567,0.0707 -1.25402,-1.79725 -0.21875,-1.96875 0.55208,-1.125 1.10417,-2.25 1.65625,-3.375 -1.01042,0.63542 -2.02083,1.27083 -3.03125,1.90625 -0.0625,-1.72917 -0.125,-3.45833 -0.1875,-5.1875 1.08258,0.29452 2.02891,1.05407 3.1875,1.0625 -0.0521,-1.65625 -0.10417,-3.3125 -0.15625,-4.96875 -1.65625,0.59375 -3.3125,1.1875 -4.96875,1.78125 0.34375,-3 0.6875,-6 1.03125,-9 -3.28599,-1.42034 -5.34721,-5.26434 -4.46875,-8.77656 -0.0888,-2.51097 -1.25384,-4.7915 -2.125,-7.09844 0.82736,-1.04341 3.11861,-1.10682 3.34375,0.46875 0.0629,1.03088 -0.88227,1.83631 -0.71875,2.875 1.12463,0.62755 1.49924,-1.17753 2.46875,-1.3125 1.6875,-1.22917 3.375,-2.45833 5.0625,-3.6875 -0.38542,1.27083 -0.77083,2.54167 -1.15625,3.8125 0.71875,-1.91667 1.4375,-3.83333 2.15625,-5.75 3.42815,0.54567 7.37122,0.009 10.21875,2.40625 0.78717,0.98658 2.13987,2.17296 3.42343,1.28594 0.53362,-0.30707 2.83734,-1.40453 1.64625,-0.15198 -1.46073,1.60118 -2.92145,3.20236 -4.38218,4.80354 2.07672,0.91465 4.17175,2.83762 6.59375,2 3.58801,-2.39614 7.17414,-4.79437 10.65625,-7.34375 -1.46012,-2.08914 -2.75445,-4.70411 -5.375,-5.5 -0.54891,0.62561 -1.5771,1.78586 -2.40625,0.90625 -1.34955,-0.44391 -2.31794,0.84827 -3.21875,1.625 -1.1983,-0.37743 -0.32006,-1.83694 -0.12969,-2.64218 0.32922,-1.25242 1.38618,-2.73974 0.61194,-3.97202 -1.18402,-1.00861 -2.73418,-1.45724 -3.8885,-2.5108 -1.65755,-0.057 -2.3909,1.7704 -3.64637,2.55751 -1.73246,1.56416 -3.46492,3.12833 -5.19738,4.69249 1.70833,-2.89583 3.41667,-5.79167 5.125,-8.6875 -3.28125,1.55208 -6.5625,3.10417 -9.84375,4.65625 0.96875,-1.60417 1.9375,-3.20833 2.90625,-4.8125 -2.89583,2.55208 -5.79167,5.10417 -8.6875,7.65625 1.63542,-3.85417 3.27083,-7.70833 4.90625,-11.5625 -0.95833,1.30208 -1.91667,2.60417 -2.875,3.90625 -1.14583,-1.20833 -2.29167,-2.41667 -3.4375,-3.625 -0.41667,3.52083 -0.83333,7.04167 -1.25,10.5625 -1.03901,0.42424 -2.35588,-0.64206 -2.09375,-1.75 -0.45088,-0.96301 -2.26291,-0.90737 -2.40625,0.25 -0.80873,0.80805 -2.08169,-0.98404 -1.03125,-1.46875 0.48958,-2.02083 0.97917,-4.04167 1.46875,-6.0625 -1.84992,1.49749 -3.24307,3.45712 -4.75,5.28125 -1.092988,-1.52312 -0.10418,-3.40562 -0.281248,-5.09375 -1.00224,-0.76702 -1.20029,0.93559 -1.71875,1.4375 -0.77711,0.69655 -0.92591,1.93702 -1.90625,2.4375 -1.26042,-1.07292 -2.52083,-2.14583 -3.78125,-3.21875 -0.53995,1.30985 -0.43538,2.87062 -1.3125,4.03125 -1.2475,0.30304 -1.95166,-1.56106 -1.21875,-2.40625 0.10202,-1.04904 0.0501,-2.1048 0.125,-3.15625 -2.46875,1.88542 -4.9375,3.77083 -7.40625,5.65625 0.0521,-1.61458 0.10417,-3.22917 0.15625,-4.84375 -1.90625,0.29167 -3.8125,0.58333 -5.71875,0.875 -0.51042,-2.16667 -1.02083,-4.33333 -1.53125,-6.5 -0.0104,1.60417 -0.0208,3.20833 -0.0312,4.8125 z m -7.1875,3 c -1.42298,1.06039 -3.36305,0.86358 -4.90625,0.1875 1.73958,-0.17708 3.47917,-0.35417 5.21875,-0.53125 -0.10417,0.11458 -0.20833,0.22917 -0.3125,0.34375 z m -13.15625,11.53125 c -0.0118,0.2294 -0.14537,-0.0114 0,0 z m -1.09375,1.71875 c -0.24501,0.13933 0.25179,-0.36281 0,0 z"
     id="path554" />
  <path
     d="m 188.62192,116.17534 4,4 0,-4 z"
     id="path556"
     style="fill:#616e89;stroke:none" />
  <path
     d="m 228.61644,287.08494 0,4 0,-4 z"
     id="path564" />
  <path
     style="fill:#b3b7bd;stroke:none"
     d="m 82.758562,138.42175 c -0.28464,-0.42695 -0.21588,-0.32381 0,0 z"
     id="path608" />
  <path
     style="fill:#89a5c0;stroke:none"
     d="m 123.07106,135.98425 c -1.64006,-0.007 -3.456,0.21187 -5.4375,0.1875 l -2,6 1,-4 -8,6 1,-5 -4,0 3,7 0,2 -2,0 7,8 -1,9 5,-2 0,5 -3,-1 -1,5 4,-2 -3,6 3,-2 5,12 4,3 3,-3 2,8 -1,4 2,0 -4,9 7,-5 -1,6 3,8 4,-2 0,6 3,-1 18,13 2,-2 1,3 3,-1 1,6 15,10 -1,3 4,3 -5,3 c 3.781,0.437 3.975,2.467 4,6 l 5,1 0,-4 2,0 -2,7 c 5.026,0.247 8.531,2.661 11,7 l -3,-1 1,4 2,-1 c 2.562,4.434 12.139,7.771 17,7 l -1,5 5,-2 4,10 28,14 -11,-14 -5,0 0,-5 -7,0 c -1.15,-3.966 -2.939,-5.367 -7,-6 -1.176,-3.542 -3.407,-4.509 -7,-5 l -4,-10 -5,2 c -0.399,-5.13 -3.196,-6.851 -8,-8 l 1,-11 -5,-7 c -3.39,-1.093 -3.945,-2.497 -4,-6 l -8,0 0,-8 c -4.22,-3.387 -3.908,-5.988 -3,-11 l -9,5 0,-8 -6,6 2,-13 0,7 4,0 4,0 5,-7 c -4.566,-0.681 -7.08,-2.839 -9,-7 l 4,2 4,-6 -3,-8 -4,0 0,4 -2,0 4,-9 2,0 9,8 4,-1 0,2 c 3.972,-0.749 10.312,-3.572 13,0 l 5,-2 1,6 17,8 3,6 4,-1 c 0.766,3.558 2.867,2.582 6,2 l -1,7 5,-1 16,18 c 2.549,-7.171 3.943,-6.223 11,-4 l -5,1 0,2 c 4.695,0.114 7.551,0.805 10,5 l 4,-1 3,8 2,-5 13,6 -1,5 5,2 2,0 4,-2 -4,-1 1,-7 -9,2 -2,-10 -9,4 2,-5 -4,1 4,-4 -1,-10 -2,2 -2,0 0,-2 -2,0 -2,2 1,-4 -3,1 0,7 c -4.293,-2.455 -1.453,-5.86 -1,-10 l -3,3 -10,-5 -3,3 -1,-5 -5,2 0,-2 -5,1 2,-5 -6,0 1,-6 -6,-3 -3,1 0,-3 -3,1 1,-4 -4,5 -5,0 0,-5 -5,0 0,-5 -13,-3 c -0.685,-5.019 -2.942,-7.423 -8,-8 l -2,-7 0,4 -3,-5 -1,3 -12,0 3,-3 -2,-3 -7,-3 -5,2 1,-5 -3,1 1,-3 0,-5 -7,4 1,-4 -4,0 2,-4 12,2 -3,-2 0,-4 -3,0 1,-7 -4,2 1,7 -3,-6 -3,1 0,-4 -4,2 2,-5 -5,2 0,-4 -7,-3 -11,9 -2,0 0,-2 -4,0 5,-6 -4,2 c -1.5975,-3.52438 -3.82906,-4.17523 -6.5625,-4.1875 z"
     id="path614" />
  <path
     d="m 242.62192,140.17534 4,5 0,-5 z"
     id="path632"
     style="fill:#89a5c0;stroke:none" />
  <path
     d="m 163.62192,144.17534 0,3 3,0 0,-3 z"
     id="path638"
     style="fill:#b3b7bd;stroke:none" />
  <path
     d="m 240.62192,144.17534 1,4 4,0 z"
     id="path640"
     style="fill:#252a46;stroke:none" />
  <path
     d="m 161.62192,156.17534 -2,4 4,0 -1,4 7,-4 0,5 -1,3 3,-1 -1,5 5,-2 c 1.806,3.249 3.383,3.599 7,3 l 2,2 -3,4 c 4.396,0.72 10.607,3.535 12,-3 l 4,5 0,-4 2,7 c 4.691,0.961 6.907,3.375 8,8 l 13,3 0,5 5,0 -1,5 6,0 4,-5 -1,4 3,-1 0,3 3,-1 6,3 -1,6 6,0 -2,5 5,-1 0,2 5,-2 1,5 3,0 0,-3 10,5 3,-3 c -0.808,4.169 -4.393,8.24 1,10 l 3,-8 -1,4 2,-2 2,0 0,2 2,0 1,-4 3,-2 -7,-4 3,0 0,-2 -5,0 -5,-12 -4,0 1,-4 -6,-3 -3,1 2,-7 -5,3 -3,-2 0,-4 -2,3 -8,1 4,-6 -17,-4 3,-6 -1,-4 -5,5 -4,-1 -3,6 5,0 5,-4 -3,2 c 1.79,6.49 5.686,5.18 11,4 l 0,4 c -4.057,1.188 -3.58,4.299 -3,8 l -2,-3 -3,3 -1,-8 -3,7 -7,-2 2,-3 -4,0 0,-2 4,0 c -0.417,-2.301 -2.969,-7.655 -5,-4 l -1,-4 -4,1 -5,-9 -6,4 1,-4 -6,0 2,-6 c -9.46,5.28 -10.456,4.229 -20,1 l 2,-5 -6,1 2,-5 z"
     id="path700"
     style="fill:#8f8c8f;stroke:none" />
  <path
     d="m 256.62192,161.17534 -3,3 -1,5 6,0 -4,7 6,0 4,-1 1,1 c -0.793,6.055 5.774,8.599 11,10 l 1,7 5,3 9,0 -1,7 5,1 c 5.972,-5.24 5.999,-12.584 6,-20 l -9,7 3,-5 -4,1 -3,-7 -3,2 -7,-2 7,-10 -9,6 1,-4 -5,2 4,-11 -1,3 -15,2 1,-4 -1,-2 z"
     id="path722"
     style="fill:#504b4c;stroke:none" />
  <path
     d="m 203.62192,162.17534 0,2 5,0 0,-2 z"
     id="path724"
     style="fill:#89a5c0;stroke:none" />
  <path
     d="m 184.62192,163.17534 0,3 3,0 0,-3 z"
     id="path726"
     style="fill:#b3b7bd;stroke:none" />
  <path
     d="m 257.62192,174.17534 0,10 5,-1 -4,5 7,-2 c 1.064,6.506 6.982,11.768 13,14 l -1,-6 4,0 0,8 4,0 0,4 c 5.608,1.755 9.986,12.414 11,18 l 2,-3 7,7 3,-2 4,3 -1,4 4,1 -2,4 5,0 -1,7 11,3 -2,4 4,0 2,6 2,0 3,-2 -1,4 c 9.525,2.521 10.478,13.205 16,20 l 4,-2 5,4 8,22 3,10 c 5.821,3.422 8.812,12.532 9,19 l 9,9 -1,26 c 11.445,-16.008 -2.824,-32.284 -3,-48 l -5,0 c -0.452,-4.369 -1.406,-7.21 -6,-8 l 2,-5 c -5.898,-3.188 -7.89,-10.732 -7,-17 l -3,2 0,-8 -2,3 -4,-8 -4,1 3,-6 -5,1 0,-6 c -7.444,-2.187 -12.074,-6.941 -10,-15 -4.011,-3.448 -6.644,-6.58 -7,-12 l -3,1 -2,-7 -4,2 0,-4 -4,1 0,-7 -4,0 2,-4 c -4.592,-1.328 -6.54,-4.317 -7,-9 l -5,1 1,-4 -3,0 c 1.994,-6.898 -2.988,-9.929 -9,-12 -2.63,4.209 -5.674,2.208 -10,3 l 1,-7 c -4.412,0.532 -6.859,1.619 -9,-3 l -5,0 -1,-7 -5,-2 0,4 -4,-4 3,-1 c -3.461,-1.895 -4.931,-2.834 -5,-7 l -1,-1 -4,1 z"
     id="path742"
     style="fill:#415679;stroke:none" />
  <path
     d="m 341.62192,179.17534 4,-3 z"
     id="path750"
     style="fill:#8f8c8f;stroke:none" />
  <path
     style="fill:#6496bd;stroke:none"
     d="m 48.008562,180.8905 c -1.33735,0.36827 -1.03872,2.03483 -1.1875,3.09375 0.56343,-0.55402 0.82021,-2.14617 1.90625,-1.59375 0.41327,0.65048 1.41117,2.28073 2.09375,1.0625 0.39125,-1.49102 -1.47839,-2.77612 -2.8125,-2.5625 z"
     id="path764" />
  <path
     style="fill:#616e89;stroke:none"
     d="m 48.352312,186.54675 c 2.75,-0.97917 5.5,-1.95833 8.25,-2.9375 -1.79167,-0.9375 -3.58333,-1.875 -5.375,-2.8125 -0.95833,1.91667 -1.91667,3.83333 -2.875,5.75 z"
     id="path766" />
  <path
     style="fill:#efeff0;stroke:none"
     d="m 49.039812,181.703 c -0.88166,0.83799 0.78268,2.48288 1.53125,1.4375 0.0759,-0.77208 -0.7237,-1.67017 -1.53125,-1.4375 z"
     id="path770" />
  <path
     d="m 418.38356,315.73425 -4,3 4,-3 z m -426.9999984,1 3,3 -3,-3 z"
     id="path774" />
  <path
     style="fill:#6496bd;stroke:none"
     d="m 64.414812,184.5155 c 1.20833,1.29167 2.41667,2.58333 3.625,3.875 0.0625,-1.3125 0.125,-2.625 0.1875,-3.9375 -1.27083,0.0208 -2.54167,0.0417 -3.8125,0.0625 z"
     id="path778" />
  <path
     style="fill:#252a46;stroke:none"
     d="m 48.633562,186.17175 -5,2 -3,8 1,3 7,-3 2,4 -1,6 3,2 5,-3 -3,3 3,6 -4,0 0,4 5,0 1,-5 7,3 c 1.171,4.002 4.371,4.067 8,3 2.044,3.613 3.864,4.99 8,4 0.741,13.38 16.75,8.419 21.999998,17 l 14,6 2,8 6,-6 c -4.292,9.91 -1.678,16.036 10,17 l 0,4 8,1 -1,-4 -8,-2 -1,-7 5,2 c -1.403,-4.225 -4.176,-4.902 -8,-3 1.305,-7.837 -10.171,-13.626 -17,-14 l 1,-3 -25.999998,-7 1,-7 -5,-1 0,-6 -3,2 -1,-4 -4,2 1,-5 5,3 7,0 c 2.652,-1.923 4.194,-1.764 6,1 l 3.999998,-1 -2.999998,5 8.999998,-2 c -1.489,-7.039 -8.062998,-7.145 -13.999998,-9.125 -9.838,-3.282 -27.316,-8.165 -31,-18.875 l 4,1 -6,-6 -11,0 z"
     id="path790" />
  <path
     d="m 225.62192,186.17534 0,4 1,-3 4,5 1,-6 z"
     id="path792"
     style="fill:#b3b7bd;stroke:none" />
  <path
     d="m 269.62192,186.17534 0,2 2,0 0,-2 z"
     id="path794"
     style="fill:#8f8c8f;stroke:none" />
  <path
     d="m 176.62192,187.17534 -4,9 2,0 0,-4 4,0 3,8 -4,6 -3,-2 c -1.094,4.833 3.973,6.701 8,7 l -5,7 c -2.72,-1.411 -4.806,-2.504 -7,0 l -1,-7 c -3.987,3.794 -1.682,8.044 -2,13 l 6,-6 0,8 9,-5 c -1.499,4.947 -2.061,8.342 3,11 l 0,8 8,0 c -0.497,3.79 0.135,5.328 4,6 0.501,3.707 1.357,5.785 5,7 l -1,11 c 4.362,1.618 7.235,3.178 8,8 l 5,-2 4,10 7,5 7,6 4,-1 -1,-7 -5,0 -5,-5 2,-4 c -4.781,-1.231 -8.78,-4.623 -11,-9 l 4,1 c -3.373,-4.745 -13.244,-13.162 -19,-14 l 0,-6 c -5.744,-3.095 -8.708,-11.301 -2,-15 l -1,6 2,0 c 0.85,-5.33 4.137,-6.039 9,-7 l -2,-5 5,0 0,-5 -3,1 0,-5 3,3 2,0 2,-2 c 2.625,4.825 6.588,7.152 12,6 l -1,4 9,0 5,11 19,3 c 1.637,4.962 7.136,7.834 12,9 l 0,4 13,4 0,3 22.666,13.885 11.441,5.008 1.893,7.107 13,5 c 0.533,4.765 2.14,7.231 7,8 l 0,4 c 4.706,1.875 11.444,7.897 12,13 l 7,5 2,0 2,-2 -5,-4 c -0.514,-5.647 -2.256,-7.812 -8,-8 -0.581,-6.346 -4.39,-11.535 -11,-12 l -5,-4 c -0.426,-6.047 -8.517,-17.217 -14,-20 l 2,-11 -2,7 -1,-8 -7,2 3,2 c -7.038,0.697 -9.331,-2.343 -9,-9 l -3,3 -2,0 0,-2 -5,1 1,-6 -13,-6 -2,5 -3,-8 -4,1 c -1.845,-4.823 -5.242,-4.957 -10,-5 l 0,-2 5,0 c -4.933,-4.309 -11.283,-5.277 -10,3 l -17,-18 -5,1 1,-7 -6,-2 -4,1 -3,-6 -17,-8 -1,-6 -5,2 c -1.035,-4.803 -9.242,-1.01 -13,0 l 0,-2 -4,1 -9,-8 z"
     id="path796"
     style="fill:#b3b7bd;stroke:none" />
  <path
     d="m 226.62192,187.17534 4,5 z"
     id="path798"
     style="fill:#efeff0;stroke:none" />
  <path
     style="fill:#89a5c0;stroke:none"
     d="m 89.633562,193.17175 c 0.0208,-1.64583 0.0417,-3.29167 0.0625,-4.9375 -1.3125,0 -2.625,0 -3.9375,0 1.29167,1.64583 2.58333,3.29167 3.875,4.9375 z"
     id="path802" />
  <path
     style="fill:#efeff0;stroke:none"
     d="m 86.883562,189.23425 c -0.42879,0.9596 -0.0622,2.0024 -0.1875,3 0.89266,0.1904 2.38282,-0.10488 2.0712,-1.3076 0.27228,-0.98037 -0.31622,-2.09675 -1.4462,-1.7549 -0.14583,0.0208 -0.29167,0.0417 -0.4375,0.0625 z"
     id="path804" />
  <path
     style="fill:#616e89;stroke:none"
     d="m 86.633562,203.17175 c -1.06173,-0.45908 -2.97609,-0.37396 -3,-1.9375 0,-1.6875 0,-3.375 0,-5.0625 -2.33333,1.33333 -4.66667,2.66667 -7,4 -1.97917,-1.64583 -3.95833,-3.29167 -5.9375,-4.9375 -0.36262,3.4351 2.40627,6.14045 5.12551,7.7503 8.24036,5.17726 17.99522,6.86091 26.878038,10.55723 2.86432,1.53282 5.33266,4.02034 8.6527,4.53622 0.53006,-1.14454 -0.33429,-2.3566 -0.23921,-3.54944 -0.15984,-1.11894 -0.31969,-2.23787 -0.47954,-3.35681 -5.33333,-3.66667 -10.666668,-7.33333 -15.999998,-11 0,-1.33333 0,-2.66667 0,-4 -1,0.66667 -2,1.33333 -3,2 -1.66667,-1.33333 -3.33333,-2.66667 -5,-4 0,3 0,6 0,9 z"
     id="path808" />
  <path
     d="m 277.62192,194.17534 0,3 2,0 0,-3 z"
     id="path810"
     style="fill:#89a5c0;stroke:none" />
  <path
     d="m 284.62192,195.17534 0,3 3,0 0,-3 z"
     id="path812"
     style="fill:#8f8c8f;stroke:none" />
  <path
     d="m 353.62192,200.17534 5,4 z"
     id="path814"
     style="fill:#252a46;stroke:none" />
  <path
     style="fill:#415679;stroke:none"
     d="m 86.633562,207.17175 c -5,-2 -10,-4 -15,-6 5,2 10,4 15,6 z"
     id="path816" />
  <path
     style="fill:#415679;stroke:none"
     d="m 53.633562,208.17175 c 1.33333,0 2.66667,0 4,0 -0.31231,-0.97319 0.539,-2.24493 -0.375,-3 -1.20833,0 -2.41667,0 -3.625,0 0,1 0,2 0,3 z"
     id="path820" />
  <path
     style="fill:#415679;stroke:none"
     d="m 78.633562,213.17175 -1,5 4,-2 0,4 4,-2 0,6 5,1 -1,7 25.999998,7 -1,3 c 6.581,0.732 17.234,6.707 17,14 3.883,-1.212 6.012,-0.666 8,3 l -5,-2 1,7 8,2 c 2.54,8.555 16.51,10.321 24,10 l 0,4 14,4 -5,-3 -1,-9 -4,3 1,-4 -2,3 -7,1 6,-6 -8,1 1,-4 -7,-2 0,-3 -26,-13 -11,-13 -4,2 -2,-11 10,1 c -1.222,-7.335 -10.083,-7.249 -15,-11 l -2,3 -7.999998,2 2.999998,-5 -3.999998,1 0,-3 -2,0 0,4 -3,0 0,-4 -8,2 c -0.654,-3.054 -2.007,-2.936 -5,-3 z"
     id="path834" />
  <path
     style="fill:#6496bd;stroke:none"
     d="m 91.633562,214.17175 0,4 3,0 0,-4 -3,0 z"
     id="path840" />
  <path
     d="m 209.62192,216.17534 0,5 3,-1 0,5 -5,0 2,5 c -5.191,0.675 -8.553,1.266 -9,7 l -2,0 1,-6 c -7.211,2.393 -4.058,13.005 2,15 l 0,6 19,14 -4,-1 c 1.511,4.944 5.928,8.265 11,9 l -2,4 5,5 5,0 c 0.118,3.696 0.118,6.864 4,8 l 0,5 5,0 11,16 c 11.438,0.128 19.347,11.635 28.286,17.671 4.765,3.219 10.786,3.679 15.12,7.859 4.192,4.043 8.391,6.285 8.594,12.47 l 5,0 0,-4 c 8.669,3.224 15.989,10.483 24.17,14.88 7.395,3.974 15.719,6.036 23.255,9.794 4.328,2.159 16.434,3.247 19.061,-1.822 7.276,-14.042 -6.673,-22.358 -5.486,-34.852 -5.263,-3.336 -8.434,-7.738 -9,-14 l -2,2 -2,0 -7,-5 c 0.521,-5.151 -7.114,-11.773 -12,-13 l 0,-4 c -4.353,-1.252 -6.111,-3.609 -7,-8 l -13,-5 -1.893,-7.687 -11.441,-4.877 -22.666,-13.436 0,-3 -13,-4 0,-4 -12,-9 -19,-3 -5,-11 -9,0 1,-4 c -5.418,0.656 -8.653,-1.902 -12,-6 l -2,2 -2,0 z"
     id="path848"
     style="fill:#efeff0;stroke:none" />
  <path
     style="fill:#616e89;stroke:none"
     d="m 18.633562,224.17175 c 0.064,2.993 -0.054,4.346 3,5 l -2,-2 2,-1 0,-2 -3,0 z m 103.999998,0 c -2.379,3.066 -6.385,2.583 -10,2 l 2,11 4,-2 c 0.811,4.857 3.599,4.716 8,5 l 0,-4 5,0 -3,6 1,6 18,11 1,-3 5,4 -4,0 6,1 0,3 7,2 -1,4 8,-1 -6,6 9,-4 -1,4 c 4.17,-2.669 2.965,-6.564 3,-11 l -5,3 2,-5 -4,2 0,-4 -6,1 -1,-6 4,1 -3,-2 0,-4 -8,-7 -4,0 c -1.533,-4.648 -8.352,-7.371 -13,-7 l -1,-4 -10,0 3,-1 0,-3 -6,-4 z"
     id="path852" />
  <path
     style="fill:#8f8c8f;stroke:none"
     d="m 293.63356,224.17175 -7,4 1,8 -4,4 4,-1 -2,5 9,-4 2,10 9,-2 -1,7 4,-1 c -2.474,7.868 0.172,9.981 8,11 l -3,-2 7,-3 0,8 1,-7 2,0 0,4 3,0 c 0.266,8.289 5.41125,9.02025 10.28125,14.28125 6.256,6.757 7.56075,14.68275 17.71875,14.71875 l 3,14 3,-3 1,9 c 2.575,0.641 2.905,-0.575 3,-3 l 2,9 4,-1 0,9 8,8 -6,-10 3,-6 4,5 c -0.825,-4.538 -2.371,-9.36 -7,-11 -0.468,-6.228 -3.87,-9.438 -10,-10 l 2,-5 -3,1 -9,-15 -4,1 1,-6 c -4.004,-2.44 -6.377,-8.419 -7,-13 l -7,1 0,-4 -5,0 -2,-8 -3,2 -2,0 c -1.612,-3.794 -5.441,-7.355 -2,-11 l -7,-4 -2,2 0,-5 -3,6 -2,0 -3,-10 -3,3 1,-5 -8,-2 2,-5 -4,1 1,-4 z m -273.999998,2 0,2 2,0 0,-2 -2,0 z"
     id="path854"
     sodipodi:nodetypes="cccccccccccccccccccscccccccccccccccccccccccccccccccccccccccccccc" />
  <path
     d="m 261.62192,234.17534 4,4 0,-4 z"
     id="path872"
     style="fill:#efeff0;stroke:none" />
  <path
     d="m 148.62192,256.17534 0,4 5,0 z"
     id="path892"
     style="fill:#6496bd;stroke:none" />
  <path
     d="m 322.62192,264.17534 -1,8 c 5.034,3.808 13.131,13.801 14,20 l 5,4 c 6.196,0.868 10.046,6.032 11,12 l 6,0 -3,-14 -1,4 -4,0 0,-4 c -4.978,-2.823 -7.644,-9.464 -11.305,-13.867 -4.67,-5.617 -11.081,-6.731 -11.695,-15.133 z"
     id="path912"
     style="fill:#89a5c0;stroke:none" />
  <path
     d="m 176.62192,267.17534 1,5 c -3.135,2.535 -2.673,5.619 -1,9 l 13,5 -4,-1 4,-4 c -0.489,-4.249 -1.703,-5.657 -6,-6 l -1,-6 z"
     id="path914"
     style="fill:#616e89;stroke:none" />
  <path
     d="m 148.62192,272.17534 0,2 19,6 0,-4 z"
     id="path926"
     style="fill:#252a46;stroke:none" />
  <path
     d="m 331.62192,278.17534 4,4 0,-4 z"
     id="path928"
     style="fill:#efeff0;stroke:none" />
  <path
     d="m 169.62192,280.17534 c 5.745,14.379 32.671,9.326 40,22 l 8,0 c -3.484,-3.824 -8.188,-4.573 -12.576,-7.075 -10.644,-6.07 -23.141,-13.072 -35.424,-14.925 z"
     id="path930"
     style="fill:#252a46;stroke:none" />
  <path
     d="m 194.62192,288.17534 c 4.273,4.718 11.647,9.154 18,10 -4.282,-6.968 -10.101,-9.371 -18,-10 z"
     id="path958"
     style="fill:#415679;stroke:none" />
  <path
     d="m 349.62192,294.17534 0,4 4,0 0,-4 z"
     id="path972"
     style="fill:#b3b7bd;stroke:none" />
  <path
     d="m 220.62192,304.17534 -8,2 c 3.797,6.983 17.199,13.503 25,14 l -2,6 7,-2 1,6 14,4 c -1.516,-3.9 -4.003,-5.124 -8,-6 l 0,-4 c -11.259,-0.334 -18.718,-7.965 -20,-18 z"
     id="path990"
     style="fill:#252a46;stroke:none" />
  <path
     d="m 221.62192,304.17534 8,2 c -0.159,9.795 7.523,17.296 18,18 -0.995,-2.846 -1.628,-4.217 1,-6 l -1,-3 z"
     id="path992"
     style="fill:#415679;stroke:none" />
  <path
     d="m 359.62192,305.17534 0,11 11,12 0,-9 -4,1 -2,-9 -3,4 c 2.138,-3.65 0.675,-6.964 -2,-10 z"
     id="path994"
     style="fill:#89a5c0;stroke:none" />
  <path
     d="m 257.62192,312.17534 c 2.184,4.261 6.359,7.06 11,8 l -5,-8 z"
     id="path1008"
     style="fill:#89a5c0;stroke:none" />
  <path
     d="m 263.62192,314.17534 4,4 z"
     id="path1010"
     style="fill:#b3b7bd;stroke:none" />
  <path
     d="m 247.62192,315.17534 1,3 c -5.746,1.231 -0.13,5.805 1,9 l 13,1 9,7 3,-5 -8,0 5,-6 c -2.85,-1.609 -5.157,-2.933 -6,1 l -1,-5 c -4.051,-0.098 -6.865,-0.345 -9,-4 z"
     id="path1012"
     style="fill:#616e89;stroke:none" />
  <path
     d="m 211.62192,316.17534 5,2 z"
     id="path1014"
     style="fill:#252a46;stroke:none" />
  <path
     d="m 210.62192,318.17534 0,4 z"
     id="path1016"
     style="fill:#504b4c;stroke:none" />
  <path
     d="m 211.62192,318.17534 0,4 z"
     id="path1018"
     style="fill:#8f8c8f;stroke:none" />
  <path
     d="m 268.62192,318.17534 5,4 z"
     id="path1024"
     style="fill:#b3b7bd;stroke:none" />
  <path
     d="m 374.62192,320.17534 -2,6 c 5.562,3.248 4.758,10.513 6.583,16 4.485,13.476 9.417,27.114 -6.332,36.147 -6.403,3.673 -15.236,-0.798 -22.251,0.853 l 0,-3 -4,3 -1,-7 -14,-5 1,-5 -5,2 c -1.039,-3.551 -3.53,-3.752 -7,-4 l 0,-4 -4,0 0,-4 -11,2 0,2 8,0 c 2.231,7.98 9.822,15.447 18,12 l -1,3 4,-1 0,4 13,9 4,-2 0,3 16.001,1.985 16.999,-3.985 0,-6 4,0 1,-34 -8,-9 c -0.073,-6.184 -2.746,-8.788 -7,-13 z"
     id="path1030"
     style="fill:#6496bd;stroke:none" />
  <path
     d="m 364.62192,322.17534 c 0.87,5.454 3.897,9.762 9,12 -1.588,8.286 5.619,12.374 6.997,20 0.419,2.319 0.327,4.673 0.044,7 -2.582,21.185 -24.994,5.831 -37.041,3 1.845,4.823 5.242,4.957 10,5 l 0,3 5,0 -1,2 5,0 -1,2 c 3.9,0.41 8.81,2.947 12.611,1.389 22.123,-9.065 5.444,-48.041 -9.611,-55.389 z"
     id="path1036"
     style="fill:#b3b7bd;stroke:none" />
  <path
     d="m 249.62192,327.17534 16,10 4,1 2,0 4,-2 c 0.926,5.318 5.504,4.755 10,6 l 2,-5 -16,-2 0,-3 -9,-4 z"
     id="path1038"
     style="fill:#415679;stroke:none" />
  <path
     d="m 257.62192,330.17534 9,8 -1,-4 z"
     id="path1054"
     style="fill:#252a46;stroke:none" />
  <path
     d="m 286.62192,332.17534 9,4 c -2.044,-3.538 -5.116,-3.939 -9,-4 z"
     id="path1056"
     style="fill:#b3b7bd;stroke:none" />
  <path
     d="m 268.62192,336.17534 c 1.116,3.901 3.002,5.418 7,6 1.347,4.542 4.787,6.26 9,8 l 3,-4 -12,-10 z"
     id="path1060"
     style="fill:#252a46;stroke:none" />
  <path
     d="m 295.62192,336.17534 6,5 z"
     id="path1062"
     style="fill:#b3b7bd;stroke:none" />
  <path
     d="m 392.62192,339.17534 -1,27 c 5.199,-5.978 3.514,-17.455 5,-25 z"
     id="path1072"
     style="fill:#252a46;stroke:none" />
  <path
     d="m 285.62192,343.17534 c 3.994,3.197 6.401,2.022 11,1 l -3,4 c 4.144,11.609 13.041,11.105 23,15 l -1,5 c 5.862,3.062 9.94,6.616 17,5 l -2,5 13,3 c 2.661,5.644 13.477,9.737 17,3 l -9,0 0,-3 -4,2 c -0.853,-4.013 -9.011,-8.313 -13,-9 l 0,-4 -4,1 1,-3 c -8.518,2.57 -14.571,-4.399 -18,-12 l -8,0 0,-2 5,-1 -3,-9 c -8.14,-0.174 -14.45,-6.367 -22,-1 z"
     id="path1074"
     style="fill:#616e89;stroke:none" />
  <path
     d="m 301.62192,342.17534 6,2 z"
     id="path1082"
     style="fill:#b3b7bd;stroke:none" />
  <path
     d="m 389.62192,342.17534 -1,26 c 2.758,-6.394 3.703,-19.546 1,-26 z"
     id="path1084"
     style="fill:#616e89;stroke:none" />
  <path
     d="m 287.62192,344.17534 c -5.206,8.314 3.052,8.574 10,10 z"
     id="path1088"
     style="fill:#415679;stroke:none" />
  <path
     d="m 292.62192,344.17534 1,3 2,-3 z"
     id="path1090"
     style="fill:#b3b7bd;stroke:none" />
  <path
     d="m 295.62192,344.17534 -3,2 c 2.022,2.142 3.598,0.586 3,-2 z"
     id="path1092"
     style="fill:#89a5c0;stroke:none" />
  <path
     d="m 312.62192,346.17534 0,4 9,2 z"
     id="path1094"
     style="fill:#b3b7bd;stroke:none" />
  <path
     d="m 308.62192,350.17534 0,2 8,0 0,4 4,0 0,4 7,4 5,-2 -1,5 3,-1 c 2.341,4.076 6.42,5.798 11,6 l 0,7 5,-3 0,3 22,1 -11,-4 1,-2 -5,0 1,-2 -5,0 0,-3 c -6.73,-0.163 -7.161,-3.595 -12.274,-6.502 -10.255,-5.831 -20.647,-12.497 -32.726,-12.498 z"
     id="path1096"
     style="fill:#89a5c0;stroke:none" />
  <path
     d="m 286.62192,352.17534 2,2 c -6.581,7.634 7.253,2.868 8,8 l 4,0 c 0.781,4.693 3.6,5.39 8,6 l 0,-7 z"
     id="path1108"
     style="fill:#252a46;stroke:none" />
  <path
     d="m 328.62192,356.17534 6,4 z"
     id="path1122"
     style="fill:#b3b7bd;stroke:none" />
  <path
     d="m 303.62192,360.17534 5,1 0,7 -4,0 0,5 17,1 c 3.845,5.046 12.832,10.486 19,12 l 0,4 c 8.09,1.03 16.179,4.174 24,0 l 1,3 14,-6 0,-3 5,0 0,-2 c -12.046,0.141 -31.965,12.26 -41,-1 l -13,-3 2,-5 -17,-5 1,-5 z"
     id="path1126"
     style="fill:#415679;stroke:none" />
  <path
     d="m 305.62192,369.17534 0,3 3,0 0,-3 z"
     id="path1136"
     style="fill:#89a5c0;stroke:none" />
  <path
     d="m 289.62192,374.17534 4,-3 -4,3 m 28,1 c 4.764,4.096 8.143,10.176 15,9 1.928,3.498 4.122,3.875 8,4 l -19,-14 z"
     id="path1138"
     style="fill:#252a46;stroke:none" />
  <path
     d="m 379.62192,376.17534 0,4 c 2.905,1.095 2.88,-1.55 3,-4 z"
     id="path1140"
     style="fill:#b3b7bd;stroke:none" />
  <path
     d="m 379.62192,378.17534 0,2 2,0 0,-2 z"
     id="path1142"
     style="fill:#efeff0;stroke:none" />
  <path
     d="m 220.62192,392.17534 0,4 z"
     id="path1144"
     style="fill:#616e89;stroke:none" />
  <path
     d="m 283.62192,398.17534 3,3 z"
     id="path1154"
     style="fill:#b3b7bd;stroke:none" />
  <path
     d="m 126.62192,406.17534 3,3 z"
     id="path1166"
     style="fill:#616e89;stroke:none" />
  <path
     d="m 129.62192,407.17534 -2,2 c 2.034,0.785 2.785,0.033 2,-2 z"
     id="path1168"
     style="fill:#504b4c;stroke:none" />
  <path
     d="m 211,540 0,4 0,-4 m 135,2 2,6 1,-6 -3,0 m -4,2 c 0.577,3.474 1.526,4.423 5,5 l -4,-1 z"
     id="path1176"
     style="fill:#504b4c;stroke:none" />
  <path
     d="m -14.380818,466.67397 0,4 0,-4 m 176.999998,0 0,2 3,0 0,-2 z"
     id="path1180"
     style="fill:#8f8c8f;stroke:none" />
  <path
     d="m 362.62192,416.17534 4,3 z"
     id="path1184"
     style="fill:#504b4c;stroke:none" />
  <path
     style="fill:#ffffff;stroke:#000000;stroke-width:1.743734px;stroke-linecap:butt;stroke-linejoin:miter;stroke-opacity:1"
     d="m 357.44506,249.29616 c 84.23138,30.86604 70.28605,122.46642 70.28605,122.46642 0,0 -41.24565,137.01977 0,0 33.12375,-110.03854 -70.57887,-123.17469 -70.28605,-122.46642 z"
     id="path5615"
     sodipodi:nodetypes="ccsc" />
  <path
     style="fill:#ffffff;stroke:#000000;stroke-width:2.33874345px;stroke-linecap:butt;stroke-linejoin:miter;stroke-opacity:1"
     d="m 392.36912,214.93079 c 116.52676,35.61665 91.55667,153.73997 91.55667,153.73997 0,0 -65.99162,177.65359 0,0 52.99688,-142.67097 -91.92648,-154.63445 -91.55667,-153.73997 z"
     id="path5615-0"
     sodipodi:nodetypes="ccsc" />
  <path
     style="fill:#ffffff;stroke:#000000;stroke-width:2.83346963px;stroke-linecap:butt;stroke-linejoin:miter;stroke-opacity:1"
     d="m 438.45558,185.12112 c 148.47462,33.08336 106.80111,168.66555 106.80111,168.66555 0,0 -99.59099,205.69855 0,0 C 625.23671,188.59317 438.04565,184.12956 438.45558,185.12112 z"
     id="path5615-0-5"
     sodipodi:nodetypes="ccsc" />
  <path
     style="fill:#ffffff;stroke:#000000;stroke-width:1.743734px;stroke-linecap:butt;stroke-linejoin:miter;stroke-opacity:1"
     d="m 253.66276,310.71696 c -33.12375,110.03853 70.6054,123.17702 70.3125,122.46875 -84.23134,-30.86604 -70.3125,-122.46875 -70.3125,-122.46875 z"
     id="path5615-3" />
  <path
     style="fill:#ffffff;stroke:#000000;stroke-width:2.33874345px;stroke-linecap:butt;stroke-linejoin:miter;stroke-opacity:1"
     d="m 197.47526,313.81071 c -52.99688,142.67096 91.9323,154.61323 91.5625,153.71875 -116.52677,-35.61665 -91.5625,-153.71875 -91.5625,-153.71875 z"
     id="path5615-0-7" />
  <path
     style="fill:#ffffff;stroke:#000000;stroke-width:2.83346963px;stroke-linecap:butt;stroke-linejoin:miter;stroke-opacity:1"
     d="M 136.16276,328.68571 C 56.182762,493.8792 243.35394,498.33352 242.94401,497.34196 94.469422,464.2586 136.16276,328.68571 136.16276,328.68571 z"
     id="path5615-0-5-2" />
  <path
     style="fill:#89a5c0;fill-opacity:1;fill-rule:nonzero;stroke:#ffffff;stroke-width:0.7890411;stroke-opacity:0"
     d="m 209.40274,491.61736 c -64.81358,-14.09509 -96.50463,-49.99388 -90.4081,-102.41192 1.07734,-9.26304 5.16581,-26.10451 8.56549,-35.28351 l 2.32424,-6.27534 -0.38327,16.92739 c -0.40838,18.03625 0.53762,28.2346 3.82068,41.18885 9.95629,39.28537 37.23819,68.33867 79.16681,84.30706 8.74019,3.32868 7.6405,3.88014 -3.08585,1.54747 l 0,0 z"
     id="path5700" />
  <path
     style="fill:#89a5c0;fill-opacity:1;fill-rule:nonzero;stroke:#ffffff;stroke-width:0.7890411;stroke-opacity:0"
     d="m 262.23202,460.84707 c -2.62389,-0.77572 -8.48252,-2.89913 -13.01918,-4.71869 -31.69283,-12.71135 -51.31232,-33.10014 -58.90363,-61.21331 -1.99903,-7.40308 -2.12996,-8.9138 -2.11992,-24.46027 0.01,-15.08501 0.20074,-17.41835 2.13123,-26.03836 3.44174,-15.36798 3.5512,-15.45095 3.6435,-2.76164 0.39717,54.60068 25.40369,96.4036 70.63578,118.0805 6.01944,2.88474 5.09599,3.31834 -2.36778,1.11177 z"
     id="path5702" />
  <path
     style="fill:#89a5c0;fill-opacity:1;fill-rule:nonzero;stroke:#ffffff;stroke-width:0.7890411;stroke-opacity:0"
     d="m 302.6027,426.42637 c -1.68467,-0.6175 -6.12303,-2.66906 -9.86301,-4.55903 -30.5488,-15.43759 -45.59378,-41.41033 -43.95014,-75.87282 0.26907,-5.64164 0.94278,-12.56548 1.49713,-15.3863 l 1.00791,-5.12876 0.5625,8.28493 c 2.76397,40.71015 20.02189,71.65026 50.41885,90.39124 5.76714,3.55568 5.87487,4.30432 0.32676,2.27074 l 0,0 z"
     id="path5704" />
  <path
     style="fill:#89a5c0;fill-opacity:1;fill-rule:nonzero;stroke:#ffffff;stroke-width:0.7890411;stroke-opacity:0"
     d="m 429.60689,348.36165 c -3.12276,-40.70202 -20.31361,-71.49244 -50.2049,-89.92165 -6.08207,-3.74985 -6.2888,-4.35039 -0.83522,-2.42625 10.53427,3.71671 23.02172,11.51713 31.53579,19.69918 17.35313,16.67642 24.92012,38.85845 22.29525,65.35675 -1.50426,15.18568 -2.07157,16.66792 -2.79092,7.29197 z"
     id="path5706" />
  <path
     style="fill:#89a5c0;fill-opacity:1;fill-rule:nonzero;stroke:#ffffff;stroke-width:0.7890411;stroke-opacity:0"
     d="m 487.60963,340.86576 c -0.39659,-41.94549 -15.54799,-77.0475 -43.25387,-100.20846 -8.60892,-7.1967 -18.75012,-13.75783 -28.22425,-18.26047 -7.35284,-3.49448 -7.06646,-3.70134 1.57808,-1.13989 34.10443,10.10545 58.89641,29.47727 69.10345,53.99569 8.29409,19.92331 9.22979,43.07624 2.77924,68.76929 l -1.88193,7.49589 -0.10072,-10.65205 z"
     id="path5708" />
  <path
     style="fill:#89a5c0;fill-opacity:1;fill-rule:nonzero;stroke:#ffffff;stroke-width:0.7890411;stroke-opacity:0"
     d="m 551.83559,314.12403 c -0.01,-16.82201 -0.2481,-20.65862 -1.78506,-28.70568 -8.41588,-44.06273 -36.13951,-75.88919 -80.98296,-92.96768 -8.60126,-3.27577 -8.13526,-3.80076 1.62063,-1.82579 66.04856,13.3708 99.06684,51.2879 91.43095,104.99627 -1.38049,9.70986 -2.15714,13.08885 -5.61547,24.43124 -4.76746,15.63606 -4.65581,15.77786 -4.66809,-5.92836 l 0,0 z"
     id="path5710" />
  <path
     style="fill:#000000;fill-opacity:1;fill-rule:nonzero;stroke:#ffffff;stroke-opacity:0"
     id="path3059"
     d="m 24.853536,225.10632 c -0.613385,0.91879 -1.298762,1.79151 -2.037178,2.61306 -0.104279,-0.1177 -0.133153,0.28718 -0.222268,0.22906 -0.03775,-0.0246 0.07483,-0.1634 0.05064,-0.12537 -0.163129,0.25644 -0.100739,0.21425 -0.04179,0.0515 -0.102423,0.57628 -0.309716,1.11235 -0.535156,1.64956 -0.329505,0.91105 -0.807345,1.75369 -1.274243,2.59881 -0.191424,0.38388 -0.09144,0.19206 -0.300315,0.57528 -0.06208,0.15805 -2.29729,-0.71992 -2.235208,-0.87798 l 0,0 c 0.147914,-0.37651 0.06084,-0.15363 0.260085,-0.66909 0.409837,-0.82886 0.910638,-1.61065 1.2738,-2.4636 0.156464,-0.33413 0.301265,-0.60763 0.41134,-0.95892 0.06412,-0.20462 0.0082,-0.17415 0.101368,-0.21087 0.115028,-0.46657 0.195858,-0.64483 0.468142,-1.10703 0.607684,-0.87449 1.221485,-1.75737 1.980682,-2.5097 0.08523,-0.1485 2.185326,1.05675 2.100101,1.20525 z" />
  <path
     style="fill:#000000;fill-opacity:1;fill-rule:nonzero;stroke:#ffffff;stroke-opacity:0"
     id="path3061"
     d="m 24.936312,222.72757 c -0.353632,0.89905 -0.883863,1.71134 -1.479024,2.46695 0.02675,-0.25428 -0.01409,0.19661 -0.02678,0.006 -0.0041,-0.0612 0.0193,-0.12136 0.02257,-0.18261 0.0031,-0.0583 -0.01887,-0.11882 -0.0035,-0.17515 0.0076,-0.0277 0.02685,0.0525 0.02917,0.0811 0.01202,0.148 0.009,0.29684 0.01356,0.44526 -0.063,0.59061 -0.338144,1.0913 -0.731627,1.52633 -0.05682,0.0657 -0.09452,0.37068 -0.12423,0.5563 0.003,0.374 -0.212361,0.70002 -0.251386,1.06469 -0.01789,0.47207 -0.153818,0.92868 -0.208335,1.39696 -0.01579,0.16786 -2.389715,-0.0555 -2.373925,-0.22331 l 0,0 c 0.05434,-0.49701 0.185365,-0.97695 0.234227,-1.47249 0.06659,-0.39672 0.209131,-0.71498 0.260631,-1.08586 0.09296,-0.56296 0.179684,-1.15108 0.541021,-1.61339 0.04176,-0.0452 0.08353,-0.0905 0.125295,-0.13569 0.01054,0.008 0.02189,0.0332 0.03163,0.0242 0.03852,-0.0357 0.04559,-0.098 0.08529,-0.13237 0.01143,-0.01 0.0135,0.0525 0.02172,0.0398 0.02876,-0.0444 0.02502,-0.10395 0.05006,-0.15052 0.0048,-0.009 0.01149,0.0169 0.01723,0.0253 0.01119,0.0762 0.02668,0.15191 0.03357,0.22863 0.0038,0.042 -0.01839,-0.0823 -0.02419,-0.12408 -0.05514,-0.39729 -0.02532,-0.75777 0.121421,-1.134 0.412971,-0.85366 0.974286,-1.63088 1.448529,-2.45075 0.07207,-0.15465 2.259114,0.86453 2.187047,1.01918 z" />
  <path
     style="fill:#000000;fill-opacity:1;fill-rule:nonzero;stroke:#ffffff;stroke-opacity:0"
     id="path3063"
     d="m 22.589504,222.04695 c -0.12917,1.02888 -0.33191,2.04136 -0.695598,3.01349 -0.281585,0.64673 -0.495901,0.76828 -1.092862,1.06649 -0.05735,0.0286 0.122624,-0.0441 0.173328,-0.0833 0.124037,-0.096 0.23079,-0.21241 0.346185,-0.31862 -0.143363,0.20865 -0.231236,0.45988 -0.31448,0.70196 -0.08615,0.38441 -0.196568,0.75942 -0.222739,1.15399 -0.05634,0.45809 -0.198267,0.89807 -0.220244,1.36022 0.0023,0.23224 -9.74e-4,0.11335 0.01049,0.35666 0.0058,0.16792 -2.368951,0.25027 -2.374774,0.0823 l 0,0 c -0.01326,-0.35685 -0.01,-0.17588 -0.0093,-0.54293 0.02587,-0.47265 0.09607,-0.93731 0.215045,-1.39597 0.04103,-0.57065 0.170488,-1.11575 0.321114,-1.666 0.148661,-0.43197 0.330928,-0.89987 0.611772,-1.25874 0.152252,-0.15453 0.285488,-0.33045 0.456756,-0.4636 0.08786,-0.0683 0.342393,-0.23605 0.307338,-0.13043 -0.0687,0.20701 -0.585074,0.22215 -0.544436,0.58373 0.190251,-0.9906 0.351536,-1.99316 0.667587,-2.95287 0.0349,-0.16722 2.399695,0.3264 2.364791,0.49362 z" />
  <path
     style="fill:#000000;fill-opacity:1;fill-rule:nonzero;stroke:#ffffff;stroke-opacity:0"
     id="path3065"
     d="m 21.736312,222.95614 c -0.347635,0.86212 -0.735445,1.70418 -1.135808,2.54242 -0.03155,-0.77876 0.07453,0.29435 0.06629,0.4985 -0.0062,0.0611 -0.01247,0.1222 -0.01871,0.1833 -0.02136,0.16441 -2.346513,-0.13766 -2.325153,-0.30207 l 0,0 c 0.0088,-0.0357 0.01755,-0.0715 0.02632,-0.10719 0.169622,0.81849 -0.254741,-0.66862 -0.05878,-0.9259 0.267967,-1.02136 0.697941,-2.01499 1.258796,-2.90824 0.07207,-0.15464 2.259114,0.86453 2.187047,1.01918 z" />
</svg>
