<?xml version="1.0" encoding="UTF-8" standalone="no"?>
<!-- Created with Inkscape (http://www.inkscape.org/) -->

<svg
   xmlns:dc="http://purl.org/dc/elements/1.1/"
   xmlns:cc="http://creativecommons.org/ns#"
   xmlns:rdf="http://www.w3.org/1999/02/22-rdf-syntax-ns#"
   xmlns:svg="http://www.w3.org/2000/svg"
   xmlns="http://www.w3.org/2000/svg"
   xmlns:xlink="http://www.w3.org/1999/xlink"
   xmlns:sodipodi="http://sodipodi.sourceforge.net/DTD/sodipodi-0.dtd"
   xmlns:inkscape="http://www.inkscape.org/namespaces/inkscape"
   height="126"
   id="svg1"
   inkscape:export-filename="/joanna/Gfx/drawings_vector/admin/thumbs/rick_two_notes.png"
   inkscape:export-xdpi="205.92"
   inkscape:export-ydpi="205.92"
   inkscape:version="0.48.0 r9654"
   sodipodi:docname="note.png"
   sodipodi:version="0.32"
   width="126"
   inkscape:output_extension="org.inkscape.output.svg.inkscape"
   version="1.1">
  <metadata
     id="metadata3">
    <rdf:RDF>
      <cc:Work
         rdf:about="">
        <dc:title></dc:title>
        <dc:description>HASH(0x89f8058)</dc:description>
        <dc:subject>
          <rdf:Bag>
            <rdf:li>hash(0x8a095fc)</rdf:li>
            <rdf:li />
            <rdf:li>hash(0x8a09650)</rdf:li>
            <rdf:li>hash(0x8a09680)</rdf:li>
            <rdf:li>music</rdf:li>
            <rdf:li>recreation</rdf:li>
          </rdf:Bag>
        </dc:subject>
        <dc:publisher>
          <cc:Agent
             rdf:about="http://www.openclipart.org">
            <dc:title>HASH(0x8a09be8)</dc:title>
          </cc:Agent>
        </dc:publisher>
        <dc:creator>
          <cc:Agent>
            <dc:title>Nathan Eady</dc:title>
          </cc:Agent>
        </dc:creator>
        <dc:rights>
          <cc:Agent>
            <dc:title>HASH(0x8a09be8)</dc:title>
          </cc:Agent>
        </dc:rights>
        <dc:date />
        <dc:format>image/svg+xml</dc:format>
        <dc:type
           rdf:resource="http://purl.org/dc/dcmitype/StillImage" />
        <cc:license
           rdf:resource="http://web.resource.org/cc/PublicDomain" />
        <dc:language>en</dc:language>
      </cc:Work>
      <cc:License
         rdf:about="http://web.resource.org/cc/PublicDomain">
        <cc:permits
           rdf:resource="http://web.resource.org/cc/Reproduction" />
        <cc:permits
           rdf:resource="http://web.resource.org/cc/Distribution" />
        <cc:permits
           rdf:resource="http://web.resource.org/cc/DerivativeWorks" />
      </cc:License>
    </rdf:RDF>
  </metadata>
  <defs
     id="defs3">
    <linearGradient
       id="linearGradient830">
      <stop
         id="stop831"
         offset="0"
         style="stop-color:#000;stop-opacity:1;" />
      <stop
         id="stop832"
         offset="1"
         style="stop-color:#fff;stop-opacity:1;" />
    </linearGradient>
    <radialGradient
       id="radialGradient833"
       xlink:href="#linearGradient830" />
    <linearGradient
       id="linearGradient834"
       x1="-1.0164395e-18"
       x2="1"
       xlink:href="#linearGradient830"
       y1="0.5"
       y2="0.5" />
  </defs>
  <sodipodi:namedview
     bordercolor="#666666"
     borderopacity="1.0"
     id="base"
     inkscape:current-layer="g54119"
     inkscape:cx="67.715313"
     inkscape:cy="67.821296"
     inkscape:pageopacity="0.0000000"
     inkscape:pageshadow="2"
     inkscape:window-height="643"
     inkscape:window-width="843"
     inkscape:window-x="521"
     inkscape:window-y="145"
     inkscape:zoom="3.4732669"
     pagecolor="#a2a2a2"
     showgrid="false"
     snaptogrid="false"
     inkscape:window-maximized="0" />
  <g
     id="g54119"
     transform="translate(-216.3097,45.625496)">
    <path
       style="fill:#000000;fill-opacity:1;fill-rule:nonzero;stroke:#000000;stroke-width:0.77611071;stroke-linecap:butt;stroke-linejoin:miter;stroke-miterlimit:4;stroke-opacity:1;stroke-dasharray:none"
       d="m 264.00833,-29.121025 c -0.558,0.04755 -1.05669,0.277106 -1.38724,0.647237 -0.33054,0.370131 -0.46197,0.84615 -0.34681,1.294473 4.90458,21.1667927 6.70403,39.792205 5.49942,57.199526 -2.87137,-2.904408 -7.55106,-4.813821 -12.83197,-4.813822 -8.72622,0 -15.80461,5.164507 -15.80461,11.5289 0,6.364393 7.07839,11.528903 15.80461,11.528901 7.74817,0 14.20793,-4.057224 15.5569,-9.425382 0.29237,-0.252299 0.49938,-0.55805 0.54499,-0.930402 2.00574,-16.376618 1.16022,-33.7281413 -2.32858,-52.952037 11.86267,6.581056 24.12055,12.934996 40.57674,16.2213652 1.10246,5.7079045 1.96332,12.7240068 2.27904,19.8216178 0.38602,8.678351 -0.11494,17.391766 -1.58542,23.58368 -2.51924,-3.931035 -7.97933,-6.674625 -14.31829,-6.674626 -8.72622,0 -15.80461,5.164505 -15.80461,11.5289 0,6.364393 7.07839,11.528896 15.80461,11.5289 7.18841,0 13.2434,-3.499539 15.16055,-8.292718 0.1327,-0.110936 0.25449,-0.219425 0.34681,-0.36407 4.16317,-6.551128 4.91526,-18.905259 4.35989,-31.390971 -0.55537,-12.4857103 -2.57581,-24.7997502 -5.1526,-30.905543 -0.22345,-0.53013 -0.76706,-0.928056 -1.43679,-1.051759 -17.75141,-3.375037 -30.41947,-10.44208 -43.59894,-17.799004 -0.38986,-0.222365 -0.86462,-0.322868 -1.3377,-0.283166 z m 2.92311,5.016083 c 11.65889,6.454702 23.77784,12.632741 39.88313,15.897747 0.59244,1.5181527 1.18524,3.5342931 1.73405,5.8655807 -16.25851,-3.5218818 -28.26401,-10.1428497 -40.67583,-17.0708627 -0.31163,-1.563765 -0.5956,-3.103063 -0.94135,-4.692465 z"
       id="path54110"
       inkscape:connector-curvature="0" />
  </g>
</svg>
